<?xml version="1.0" encoding="UTF-8"?>
<svg xmlns="http://www.w3.org/2000/svg" width="183" height="26" viewBox="0 0 183 26"><g fill="#131514" fill-rule="evenodd"><path d="M151.883 11.026c1.123 0 2.035-.948 2.035-2.526 0-1.614-.912-2.527-2.035-2.527h-.562v5.053h.562zm-7.545-8.843c0-.42-.035-.982-.245-1.158h8.176c5.79 0 8.843 2.351 8.843 7.44 0 3.087-1.298 5.123-3.439 6.14l4.211 9.51c.245.421.456.983.772 1.158h-7.58c.106-.175.14-.737-.105-1.158l-3.65-8.773h-.07v8.773c0 .421.035.983.246 1.158h-7.404c.21-.175.245-.737.245-1.158V2.183zM95.018 1.47c.054.146.071.326.077.543v15.811c0 .927-.11 1.52-.433 1.952-.303.41-.76.612-1.268.612-.51 0-.966-.203-1.27-.612-.321-.432-.432-1.025-.432-1.952V2.014c.006-.218.023-.398.076-.544a.828.828 0 0 1 .352-.442h-7.767s.236.122.35.442c.054.146.071.326.077.543l.004 16.097c0 4.287 2.62 7.728 8.46 7.728h.3c5.838 0 8.459-3.44 8.459-7.728l.004-16.097c.005-.217.023-.397.076-.543.115-.32.351-.442.351-.442h-7.767s.237.122.351.442M83.9 19.719c-.147.053-.327.07-.545.077H79.35V2a1.76 1.76 0 0 1 .077-.537c.115-.32.351-.441.351-.441H72.01s.237.121.352.441c.041.116.06.252.07.411l.003 22.413a1.762 1.762 0 0 1-.076.537.827.827 0 0 1-.351.442l12.333.001v-5.9s-.122.236-.442.35M113.998 24.825c-.052-.145-.07-.322-.076-.536l-.003-17.795h3.027c.218.005.397.024.544.077.32.115.441.35.441.35v-5.9h-14.94v5.9s.12-.235.44-.35c.148-.053.328-.072.545-.077H107l.004 17.92a1.48 1.48 0 0 1-.07.41c-.116.321-.352.443-.352.443h7.767s-.236-.122-.351-.442M64.128 13.498c-.003 3.301-.096 6.867-2.098 6.932-2.004-.065-2.096-3.63-2.1-6.932v-.612c.004-3.302.096-6.919 2.1-6.983 2.002.064 2.095 3.681 2.098 6.983v.612zM62.038.545h-.016c-6.217.03-9.132 4.741-9.199 12.34h-.002v.613h.002c.067 7.598 2.982 12.31 9.199 12.34v.001h.016c6.215-.03 9.131-4.743 9.198-12.341h.002v-.612h-.002C71.169 5.286 68.253.574 62.038.545zM27.72 20.354h-.436v-5.312h.436c1.827 0 2.912.995 2.93 2.566.019 2.013-1.254 2.746-2.93 2.746zm-.408-14.408h.46c1.353 0 2.602.691 2.506 2.443-.086 1.598-1.198 2.263-2.506 2.263h-.46V5.946zM32.02 12.7h-.054c2.358-.057 4.447-2.457 4.322-5.478-.18-4.323-3.397-6.194-8.815-6.194h-7.336s.236.122.351.442c.102.281.078.67.078 1.252v20.85c0 1.339-.208 1.694-.208 1.694l8.74.001c5.471.001 8.163-2.676 8.163-6.711 0-3.447-2.507-5.66-5.241-5.856zM9.065 16.901l1.395-9.62 1.395 9.62h-2.79zm10.199 5.684S14.657 2.694 14.553 2.223c-.2-.895.268-1.194.268-1.194H6.1s.467.3.268 1.194c-.104.47-4.71 20.362-4.71 20.362-.546 2.533-1.262 2.68-1.262 2.68l8.018.002s-.578-.215-.45-1.081c.13-.866.451-2.828.451-2.828h4.092s.322 1.962.451 2.828c.129.866-.45 1.08-.45 1.08h7.624s-.321-.148-.867-2.68zM50.336 13.08c-1.263-1.353-2.744-2.544-4.224-3.66-1.272-.96-1.875-1.63-1.59-2.565.572-1.88 4.073-.631 6.188.845V1.315s-.39.485-1.083.227C48.43 1.097 47.43.554 45.345.544c-4.774-.02-7.455 3.49-7.483 6.89-.02 2.413.683 4.164 2.641 5.89 1.489 1.31 3.153 2.534 4.187 3.505.743.698 1.24 1.697.88 2.556-.6 1.43-3.4 1.403-7.554-2.15v7.203s.504-.455 1.21-.107c1.185.583 3.16 1.49 5.194 1.517 5.577.074 8.447-3.567 8.07-8.083-.149-1.772-.829-3.267-2.154-4.686M178.671 18.027a3.822 3.822 0 1 0 0 7.643 3.822 3.822 0 0 0 0-7.643M172.838 24.825a1.77 1.77 0 0 1-.076-.536l-.003-17.795h3.027c.218.005.397.024.544.077.32.115.441.35.441.35v-5.9h-14.94v5.9s.12-.235.441-.35a1.78 1.78 0 0 1 .544-.077h3.024l.004 17.92c-.01.159-.029.295-.07.41-.116.321-.352.443-.352.443h7.767s-.236-.122-.351-.442M132.61 16.901l1.395-9.62 1.395 9.62h-2.79zm10.199 5.684s-4.607-19.891-4.712-20.362c-.198-.895.27-1.194.27-1.194h-8.723s.467.3.268 1.194c-.104.47-4.71 20.362-4.71 20.362-.546 2.533-1.263 2.68-1.263 2.68l8.019.002s-.578-.215-.45-1.081c.13-.866.451-2.828.451-2.828h4.092s.322 1.962.451 2.828c.129.866-.45 1.08-.45 1.08h7.624s-.321-.148-.867-2.68z"/></g></svg>