<svg width="285px" height="81px" viewBox="0 0 240 81" version="1.1" xmlns:xlink="http://www.w3.org/1999/xlink"><desc>Billio logo</desc><defs><linearGradient x1="-101.418908%" y1="59.3215754%" x2="140.525396%" y2="59.3215754%" id="linearGradient-1"><stop stop-color="#EE4864" offset="0%"></stop><stop stop-color="#F6854E" offset="100%"></stop></linearGradient><linearGradient x1="-64.4709498%" y1="50%" x2="513.863882%" y2="50%" id="linearGradient-2"><stop stop-color="#EE4864" offset="0%"></stop><stop stop-color="#F6854E" offset="100%"></stop></linearGradient></defs><g id="Page-1" stroke="none" stroke-width="1" fill="none" fill-rule="evenodd"><g id="Logo"><text id="Billo" fill="#fff" font-family="Poppins" font-size="82" font-weight="bold"><tspan x="78" y="67">Billio</tspan></text><g id="Icon" fill="#fff" fill-rule="nonzero"><path d="M65.1428658,0.588020453 L53.1962503,0.588020453 C53.1962503,0.588020453 53.1962503,0.588020453 53.1962503,0.588020453 C51.8438033,0.588020453 50.9421719,1.52885318 50.9421719,2.94010226 C50.9421719,5.76260044 48.6880935,8.11468225 45.9831994,8.11468225 C45.9831994,8.11468225 45.9831994,8.11468225 45.9831994,8.11468225 C44.8561602,8.11468225 43.9545289,7.64426589 43.0528975,7.17384953 L41.4750426,1.76406136 C41.0242269,0.588020453 39.8971877,-0.117604091 38.7701485,0.117604091 L27.0489408,3.41051863 C25.9219016,3.88093499 25.2456781,5.05697589 25.471086,6.2330168 C26.1473095,8.82030679 24.7948624,11.642805 22.0899683,12.5836377 C19.6104821,13.2892622 16.6801802,11.8780131 16.0039567,9.05551497 C15.553141,7.87947407 14.4261018,7.17384953 13.2990626,7.40905771 L1.80326272,10.9371804 C0.676223521,11.4075968 2.772782e-14,12.5836377 0.22540784,13.7596786 L18.9342586,79.147553 C19.1596664,80.0883857 20.0612978,80.7940102 21.188337,80.7940102 C21.4137448,80.7940102 21.6391527,80.7940102 21.8645605,80.7940102 L33.3603604,77.2658875 C34.4873996,76.7954711 35.1636231,75.6194302 34.9382152,74.4433893 C34.2619917,71.8560993 35.6144388,69.0336012 38.3193328,68.0927684 C40.7988191,67.3871439 43.729121,68.798393 44.4053445,71.6208912 C44.8561602,72.7969321 45.9831994,73.5025566 47.1102386,73.2673484 L50.9421719,72.0913075 C50.9421719,72.3265157 51.1675797,72.5617239 51.3929876,72.5617239 C51.8438033,73.0321402 52.2946189,73.2673484 52.9708425,73.2673484 L64.917458,73.2673484 C64.917458,73.2673484 64.917458,73.2673484 64.917458,73.2673484 C66.269905,73.2673484 67.1715364,72.3265157 67.1715364,70.9152666 L67.1715364,2.70489408 C67.1715364,1.52885318 66.269905,0.588020453 65.1428658,0.588020453 Z M36.9668858,63.8590212 C32.6841368,65.2702703 29.9792428,69.2688093 30.2046506,73.7377648 L22.7661919,76.0898466 L18.2580351,60.5661066 L20.5121135,59.8604821 C21.188337,59.6252739 21.4137448,58.9196494 21.188337,58.449233 C20.9629291,57.7436085 20.2867056,57.5084003 19.8358899,57.7436085 L17.5818115,58.449233 L5.40978817,15.4061359 L12.8482469,13.0540541 C14.4261018,15.8765522 17.5818115,17.9934259 20.9629291,17.9934259 C21.8645605,17.9934259 22.7661919,17.7582177 23.6678232,17.5230095 C27.9505722,16.1117604 30.6554663,12.1132213 30.4300584,7.64426589 L37.8685172,5.29218408 L50.0405405,48.3352812 C49.364317,48.5704894 49.1389092,49.276114 49.364317,49.7465303 C49.5897249,50.2169467 50.0405405,50.687363 50.4913562,50.687363 C50.4913562,50.687363 50.7167641,50.687363 50.7167641,50.687363 L55.2249209,66.211103 L52.2946189,67.1519357 C52.2946189,67.1519357 52.2946189,67.1519357 52.2946189,67.1519357 C52.2946189,67.1519357 52.2946189,67.1519357 52.2946189,67.1519357 L47.7864621,68.5631848 C45.5323837,64.5646457 41.0242269,62.6829803 36.9668858,63.8590212 Z M62.6633796,68.798393 L59.9584855,68.798393 C59.9584855,68.798393 59.9584855,68.798393 59.9584855,68.798393 C60.1838934,68.3279766 60.4093012,67.6223521 60.1838934,66.9167275 L44.6307524,12.5836377 C45.0815681,12.5836377 45.5323837,12.8188459 45.9831994,12.8188459 C45.9831994,12.8188459 45.9831994,12.8188459 45.9831994,12.8188459 C50.2659484,12.8188459 54.0978817,9.76113952 54.999513,5.29218408 L62.8887874,5.29218408 L62.6633796,68.798393 Z" id="Shape"></path><path d="M28.4013879,54.9211103 L24.1186389,56.3323594 C23.4424154,56.5675676 23.2170075,57.2731921 23.4424154,57.7436085 C23.6678232,58.2140248 24.1186389,58.6844412 24.5694546,58.6844412 C24.5694546,58.6844412 24.7948624,58.6844412 24.7948624,58.6844412 L29.0776114,57.2731921 C29.7538349,57.0379839 29.9792428,56.3323594 29.7538349,55.861943 C29.7538349,54.9211103 29.0776114,54.6859021 28.4013879,54.9211103 Z" id="Shape"></path><path d="M37.1922936,52.0986121 L32.9095447,53.5098612 C32.2333212,53.7450694 32.0079133,54.4506939 32.2333212,54.9211103 C32.458729,55.3915267 32.9095447,55.861943 33.3603604,55.861943 C33.3603604,55.861943 33.5857682,55.861943 33.5857682,55.861943 L37.8685172,54.4506939 C38.5447407,54.2154858 38.7701485,53.5098612 38.5447407,53.0394449 C38.3193328,52.3338203 37.6431093,51.8634039 37.1922936,52.0986121 Z" id="Shape"></path><path d="M45.7577916,49.5113221 L41.4750426,50.9225712 C40.7988191,50.9225712 40.5734112,51.6281958 40.5734112,52.3338203 C40.7988191,52.8042367 41.2496348,53.274653 41.7004505,53.274653 C41.7004505,53.274653 41.9258583,53.274653 41.9258583,53.274653 L46.2086073,51.8634039 C46.8848308,51.6281958 47.1102386,50.9225712 46.8848308,50.4521549 C46.8848308,49.5113221 46.4340151,49.276114 45.7577916,49.5113221 Z" id="Shape"></path></g></g></g></svg>