<svg width="574px" height="182px" viewBox="0 0 574 182" version="1.1" xmlns="http://www.w3.org/2000/svg" xmlns:xlink="http://www.w3.org/1999/xlink">
    <!-- Generator: Sketch 49.3 (51167) - http://www.bohemiancoding.com/sketch -->
    <title>Combined Shape@2x</title>
    <desc>Created with Sketch.</desc>
    <defs></defs>
    <g id="Page-1" stroke="none" stroke-width="1" fill="none" fill-rule="evenodd">
        <path d="M110.164833,120.98895 C110.154758,120.84945 110.147275,120.477223 110.147275,120.037643 L110.147275,1.0204555 C110.147275,0.460157678 110.6022,0.00725871394 111.160472,0.00725871394 L113.79073,0.00725871394 C114.247682,0.00725871394 114.742122,0.0538657662 115.253787,0.147079871 C121.043193,0.822882128 124.373571,5.21205061 124.373571,5.21205061 L188.645709,93.5658501 C188.973985,94.0187491 189.241469,93.9326273 189.241469,93.3723295 L189.241469,13.1433551 C189.241469,6.24551134 194.562778,0.593899654 201.316748,0.0538657662 C201.87502,0.0102983043 202.328932,0.465223662 202.328932,1.02450829 L202.328932,120.037643 C202.328932,120.59794 201.87502,121.050839 201.315735,121.050839 L199.255906,121.050839 C192.070314,121.050839 188.454215,115.546141 188.454215,115.546141 L123.829484,26.7090469 C123.501208,26.2571611 123.234738,26.3432828 123.234738,26.9035806 L123.284384,107.914743 C123.284384,114.812587 117.964088,120.463185 111.211131,121.002206 C110.654313,121.046751 110.188539,121.044763 110.173652,121.047793 C110.173644,121.047794 110.173631,121.047797 110.173618,121.0478 C110.163843,121.049894 110.160804,121.025525 110.164833,120.98895 Z M19.7245275,181.577189 L15.6737667,181.577189 L12.318059,170.099696 L12.2471352,170.099696 L8.89244062,181.577189 L4.81736314,181.577189 L0.00062561,164.608169 L4.41005803,164.608169 L7.09502952,175.899234 L7.16595329,175.899234 L10.1862929,164.608169 L14.4508382,164.608169 L17.4944813,175.899234 L17.5674315,175.899234 L20.2979969,164.608169 L24.5645685,164.608169 L19.7245275,181.577189 Z M58.4256052,164.608169 L62.5472897,164.608169 L62.5472897,181.577189 L58.4256052,181.577189 L58.4256052,164.608169 Z M108.941571,181.577189 L102.112624,170.479645 L102.040687,170.479645 L102.134915,181.577189 L98.1581172,181.577189 L98.1581172,164.608169 L102.830981,164.608169 L109.636624,175.680384 L109.708561,175.680384 L109.612307,164.608169 L113.591131,164.608169 L113.591131,181.577189 L108.941571,181.577189 Z M149.200945,181.577189 L149.200945,164.608169 L160.606501,164.608169 L160.606501,168.061144 L153.154439,168.061144 L153.154439,171.269938 L160.199196,171.269938 L160.199196,174.556749 L153.154439,174.556749 L153.154439,178.077607 L161.039136,178.077607 L161.039136,181.577189 L149.200945,181.577189 Z M212.151875,181.577189 L210.544945,179.923652 C210.001871,180.496108 209.336201,180.97535 208.545907,181.34922 C207.753587,181.723089 206.767747,181.910531 205.584333,181.910531 C204.81633,181.910531 204.068591,181.812251 203.331997,181.613664 C202.596416,181.411025 201.946957,181.099973 201.379566,180.678484 C200.813189,180.256994 200.358264,179.726079 200.01479,179.096883 C199.668277,178.467688 199.497047,177.718936 199.497047,176.855692 C199.497047,176.262972 199.5933,175.721925 199.785808,175.228498 C199.978315,174.727979 200.238707,174.292304 200.565969,173.907289 C200.890192,173.522275 201.270141,173.188933 201.701763,172.903211 C202.133385,172.612424 202.580205,172.36723 203.043235,172.159525 C202.519413,171.649887 202.094883,171.088576 201.774713,170.479645 C201.454543,169.875779 201.296484,169.205043 201.296484,168.467436 C201.296484,167.702472 201.454543,167.046934 201.774713,166.500821 C202.094883,165.960787 202.505228,165.513967 203.0098,165.159348 C203.512346,164.810809 204.078723,164.555483 204.710957,164.395398 C205.343192,164.2343 205.969348,164.156283 206.590437,164.156283 C207.230778,164.156283 207.861999,164.239366 208.483089,164.40553 C209.108231,164.571694 209.660424,164.832086 210.149798,165.185691 C210.636132,165.534231 211.029253,165.98713 211.325106,166.527164 C211.619946,167.068211 211.767873,167.718683 211.767873,168.467436 C211.767873,169.013549 211.679725,169.50191 211.505455,169.944677 C211.328146,170.380351 211.083965,170.781577 210.77494,171.140249 C210.461862,171.498921 210.098125,171.821117 209.682714,172.111905 C209.26629,172.398639 208.829602,172.663084 208.363532,172.903211 L210.498337,175.081584 L212.199495,172.47159 L216.559281,172.47159 L212.893535,177.381541 L217.111473,181.577189 L212.151875,181.577189 Z M208.243975,168.586993 C208.243975,168.155371 208.101114,167.791634 207.812353,167.484635 C207.526631,167.182702 207.133511,167.031736 206.640084,167.031736 C206.177053,167.031736 205.790012,167.177636 205.477947,167.47349 C205.165883,167.770356 205.00985,168.140173 205.00985,168.586993 C205.00985,168.987206 205.119276,169.372221 205.335087,169.735958 C205.550898,170.105775 205.864989,170.459381 206.281412,170.791709 C206.82246,170.567793 207.287517,170.271939 207.670505,169.908202 C208.054507,169.538385 208.243975,169.101697 208.243975,168.586993 Z M205.225661,174.410848 C204.747432,174.603356 204.325943,174.868813 203.966258,175.212287 C203.607586,175.555761 203.429263,176.049187 203.429263,176.689528 C203.429263,177.021856 203.496134,177.323789 203.63089,177.589247 C203.766658,177.849638 203.943967,178.072541 204.159778,178.259983 C204.375589,178.442358 204.61977,178.582179 204.88928,178.675393 C205.160817,178.774687 205.441472,178.822307 205.72922,178.822307 C206.255069,178.822307 206.728232,178.706803 207.141616,178.483899 C207.557027,178.259983 207.916712,177.941839 208.220671,177.526428 L205.225661,174.410848 Z M261.398304,169.018615 C261.047738,168.571795 260.586734,168.218189 260.02137,167.952732 C259.45398,167.687274 258.904827,167.557585 258.378978,167.557585 C258.106428,167.557585 257.830839,167.583928 257.553223,167.630535 C257.272567,167.677142 257.020281,167.770356 256.796365,167.905112 C256.572448,168.04088 256.38602,168.218189 256.23404,168.430961 C256.081048,168.649811 256.006071,168.925401 256.006071,169.257729 C256.006071,169.548517 256.064837,169.788644 256.184394,169.975073 C256.304964,170.168593 256.48126,170.339823 256.713283,170.479645 C256.944291,170.625545 257.219881,170.756247 257.539038,170.874791 C257.860221,170.994349 258.21788,171.119985 258.619106,171.249674 C259.193588,171.442182 259.791374,171.6509 260.415504,171.883935 C261.039633,172.112918 261.607023,172.419916 262.116661,172.803918 C262.628325,173.188933 263.052855,173.663109 263.388223,174.229486 C263.723591,174.796876 263.889755,175.503074 263.889755,176.35112 C263.889755,177.328855 263.71042,178.170821 263.351748,178.878033 C262.992063,179.591323 262.508768,180.178977 261.90085,180.642008 C261.293945,181.105039 260.600919,181.448513 259.817717,181.671416 C259.03249,181.895333 258.225985,182.009824 257.39719,182.009824 C256.182367,182.009824 255.007059,181.79604 253.873292,181.37455 C252.739525,180.947994 251.795225,180.346155 251.044447,179.56498 L253.730431,176.829349 C254.143815,177.345066 254.692968,177.771622 255.37181,178.114082 C256.050652,178.457556 256.726454,178.628786 257.39719,178.628786 C257.699123,178.628786 257.994976,178.598391 258.283738,178.535572 C258.569459,178.467688 258.821745,178.364342 259.037556,178.223508 C259.253367,178.077607 259.42561,177.886113 259.55226,177.646999 C259.679923,177.406871 259.744767,177.12115 259.744767,176.782742 C259.744767,176.466624 259.664725,176.195088 259.505653,175.966105 C259.344555,175.743202 259.118612,175.539549 258.821745,175.358187 C258.524878,175.175812 258.159114,175.004582 257.719387,174.853615 C257.27966,174.702649 256.780154,174.541551 256.221882,174.364241 C255.677795,174.187945 255.147893,173.979226 254.62711,173.740112 C254.11038,173.502011 253.645323,173.195012 253.239031,172.820129 C252.830712,172.44018 252.50345,171.988295 252.25623,171.452314 C252.00901,170.916332 251.884387,170.266873 251.884387,169.497857 C251.884387,168.555584 252.076894,167.750093 252.458869,167.079356 C252.843884,166.40862 253.34643,165.856428 253.969546,165.424806 C254.590635,164.993184 255.29582,164.676053 256.079021,164.479493 C256.861209,164.280907 257.652516,164.177561 258.449902,164.177561 C259.409399,164.177561 260.387134,164.353857 261.385133,164.707463 C262.384145,165.056002 263.257521,165.575772 264.009313,166.261706 L261.398304,169.018615 Z M311.578902,169.834238 C311.578902,170.823118 311.393487,171.660019 311.027723,172.335821 C310.658919,173.017703 310.163466,173.563816 309.54035,173.979226 C308.91926,174.39565 308.198877,174.697583 307.384267,174.89009 C306.568644,175.081584 305.723638,175.175812 304.844183,175.175812 L302.805631,175.175812 L302.805631,181.577189 L298.710289,181.577189 L298.710289,164.608169 L304.940436,164.608169 C305.865485,164.608169 306.731768,164.702397 307.541313,164.884772 C308.345791,165.0712 309.048949,165.361988 309.649775,165.773346 C310.247561,166.178624 310.717685,166.714605 311.061158,167.380276 C311.404632,168.04088 311.578902,168.857517 311.578902,169.834238 Z M307.480521,169.855515 C307.480521,169.460369 307.400478,169.133106 307.23938,168.877781 C307.080308,168.617389 306.864497,168.420829 306.593974,168.273915 C306.32041,168.135107 306.014425,168.035814 305.670951,167.988194 C305.327478,167.941587 304.970832,167.916257 304.605068,167.916257 L302.805631,167.916257 L302.805631,171.92041 L304.532118,171.92041 C304.915107,171.92041 305.28391,171.889001 305.635489,171.821117 C305.985042,171.759312 306.300147,171.649887 306.580802,171.488789 C306.859431,171.32769 307.080308,171.113906 307.23938,170.853514 C307.400478,170.58907 307.480521,170.255728 307.480521,169.855515 Z M346.159308,164.608169 L350.280993,164.608169 L350.280993,181.577189 L346.159308,181.577189 L346.159308,164.608169 Z M394.97209,181.577189 L391.290133,174.843483 L389.892934,174.843483 L389.892934,181.577189 L385.89182,181.577189 L385.89182,164.608169 L392.361082,164.608169 C393.175692,164.608169 393.971051,164.691251 394.745134,164.863495 C395.520229,165.029659 396.215282,165.315381 396.831306,165.710527 C397.44429,166.11074 397.936704,166.636589 398.302468,167.292128 C398.671271,167.946653 398.853647,168.763289 398.853647,169.735958 C398.853647,170.889989 398.544622,171.853539 397.920492,172.637754 C397.296363,173.422981 396.435146,173.979226 395.333801,174.317634 L399.766537,181.577189 L394.97209,181.577189 Z M394.805926,169.808908 C394.805926,169.407682 394.719804,169.085486 394.55364,168.841305 C394.384436,168.592059 394.165585,168.399552 393.903167,168.263783 C393.638723,168.129028 393.338817,168.035814 393.010541,167.988194 C392.681252,167.941587 392.364121,167.916257 392.060162,167.916257 L389.867604,167.916257 L389.867604,171.873803 L391.818008,171.873803 C392.156416,171.873803 392.501916,171.842394 392.855522,171.784642 C393.209127,171.732969 393.528284,171.629623 393.817045,171.488789 C394.10682,171.343902 394.342895,171.135183 394.52831,170.864659 C394.711698,170.594136 394.805926,170.24053 394.805926,169.808908 Z M433.889992,164.608169 L438.010663,164.608169 L438.010663,181.577189 L433.889992,181.577189 L433.889992,164.608169 Z M480.881045,168.107751 L480.881045,181.577189 L476.786717,181.577189 L476.786717,168.107751 L471.99227,168.107751 L471.99227,164.608169 L485.675493,164.608169 L485.675493,168.107751 L480.881045,168.107751 Z M528.619838,169.018615 C528.268259,168.571795 527.808268,168.218189 527.241891,167.952732 C526.674501,167.687274 526.125348,167.557585 525.599499,167.557585 C525.326949,167.557585 525.052373,167.583928 524.773743,167.630535 C524.493088,167.677142 524.240802,167.770356 524.016885,167.905112 C523.792969,168.04088 523.606541,168.218189 523.454561,168.430961 C523.301569,168.649811 523.226592,168.925401 523.226592,169.257729 C523.226592,169.548517 523.286371,169.788644 523.405928,169.975073 C523.525485,170.168593 523.701781,170.339823 523.933803,170.479645 C524.165825,170.625545 524.440402,170.756247 524.760572,170.874791 C525.080742,170.994349 525.439414,171.119985 525.839626,171.249674 C526.414109,171.442182 527.011895,171.6509 527.636024,171.883935 C528.261167,172.112918 528.827544,172.419916 529.337182,172.803918 C529.848846,173.188933 530.273376,173.663109 530.608744,174.229486 C530.944112,174.796876 531.110276,175.503074 531.110276,176.35112 C531.110276,177.328855 530.93094,178.170821 530.572269,178.878033 C530.212584,179.591323 529.730302,180.178977 529.121371,180.642008 C528.514466,181.105039 527.821439,181.448513 527.038238,181.671416 C526.253011,181.895333 525.446506,182.009824 524.617711,182.009824 C523.403901,182.009824 522.22758,181.79604 521.093813,181.37455 C519.960046,180.947994 519.015746,180.346155 518.264967,179.56498 L520.951965,176.829349 C521.365349,177.345066 521.913489,177.771622 522.592331,178.114082 C523.271173,178.457556 523.946975,178.628786 524.617711,178.628786 C524.919644,178.628786 525.21651,178.598391 525.504258,178.535572 C525.78998,178.467688 526.042266,178.364342 526.258077,178.223508 C526.473888,178.077607 526.646131,177.886113 526.773794,177.646999 C526.900444,177.406871 526.965288,177.12115 526.965288,176.782742 C526.965288,176.466624 526.885246,176.195088 526.726174,175.966105 C526.565075,175.743202 526.339133,175.539549 526.042266,175.358187 C525.746412,175.175812 525.379635,175.004582 524.939908,174.853615 C524.501194,174.702649 524.000674,174.541551 523.442403,174.364241 C522.899329,174.187945 522.368414,173.979226 521.847631,173.740112 C521.330901,173.502011 520.865843,173.195012 520.459552,172.820129 C520.051233,172.44018 519.723971,171.988295 519.477764,171.452314 C519.229531,170.916332 519.104907,170.266873 519.104907,169.497857 C519.104907,168.555584 519.297415,167.750093 519.67939,167.079356 C520.065418,166.40862 520.56695,165.856428 521.190066,165.424806 C521.812169,164.993184 522.517354,164.676053 523.299542,164.479493 C524.08173,164.280907 524.873037,164.177561 525.670423,164.177561 C526.62992,164.177561 527.607655,164.353857 528.605654,164.707463 C529.605679,165.056002 530.478041,165.575772 531.229833,166.261706 L528.619838,169.018615 Z M81.0158408,121.025509 C81.0796722,121.039694 81.0898041,121.016391 81.0229331,121.008285 C80.955049,121.001193 80.9530226,121.012338 81.0158408,121.025509 Z M310.960852,0.152145855 C310.945654,0.206858481 310.934509,0.22610922 310.934509,0.19470012 C310.934509,0.163291019 310.945654,0.118710361 310.960852,0.0954068345 C310.975036,0.0731165051 310.97605,0.0974332281 310.960852,0.152145855 Z M573.399084,0.00624551715 C573.958368,0.00624551715 574.16506,0.387207509 573.859075,0.856317622 L530.898518,66.7759138 C530.592533,67.2440107 530.345313,68.0778717 530.345313,68.6371563 L530.345313,117.78024 C530.345313,118.340538 529.892414,118.793437 529.332116,118.793437 L518.27206,118.793437 C517.711762,118.793437 517.258863,118.340538 517.258863,117.78024 L517.258863,68.6371563 C517.258863,68.0778717 517.011643,67.2440107 516.705657,66.7759138 L473.746114,0.856317622 C473.440128,0.387207509 473.64682,0.00624551715 474.206105,0.00624551715 C476.249723,0.00421912358 480.752369,0.00117953321 481.697682,0.00725871394 C483.827422,0.0184038786 489.176088,0.792486224 492.587521,5.78754639 L523.247869,52.8474976 C523.553855,53.3166077 524.048295,53.3166077 524.35428,52.8474976 L555.016654,5.78754639 C558.429101,0.792486224 563.776754,0.0184038786 565.903454,0.00725871394 C566.851806,0.00117953321 571.354453,0.00421912358 573.399084,0.00624551715 Z M402.691636,0.00219273 C435.445249,0.00219273 462.087258,26.6472419 462.087258,59.3968016 C462.087258,92.1473746 435.445249,118.791411 402.691636,118.791411 C369.945116,118.791411 343.300067,92.1473746 343.300067,59.3968016 C343.300067,26.6472419 369.945116,0.00219273 402.691636,0.00219273 Z M397.980271,105.432411 C399.529449,105.599588 401.095851,105.705974 402.691636,105.705974 C423.097419,105.705974 440.462599,92.4310697 446.615743,74.0668779 C446.794066,73.536976 446.477949,73.171212 445.925756,73.2634129 C426.231237,76.5684608 408.703946,87.8716841 397.534464,104.469874 C397.221387,104.933918 397.424026,105.371619 397.980271,105.432411 Z M447.431367,52.6337131 C447.989638,52.6104095 448.380732,52.1483918 448.295624,51.5951864 C448.242937,51.2527258 448.188225,50.9122917 448.12642,50.5728708 C448.02814,50.0216917 447.478987,49.569806 446.919702,49.56474 C415.60179,49.2698997 386.357891,62.3573626 365.729204,85.5160016 C365.357361,85.9344519 365.322912,86.6447028 365.65828,87.0915226 C367.155785,89.0875203 368.810336,90.954842 370.604707,92.6803161 C371.008973,93.0683705 371.608785,93.0075787 371.941114,92.5577193 C389.796681,68.4253982 417.293828,53.8454964 447.431367,52.6337131 Z M378.757902,97.7848015 C378.426586,98.2346609 378.54513,98.8456186 379.025386,99.1323532 C381.571549,100.656201 384.270705,101.947014 387.100564,102.962237 C387.626413,103.151705 388.290057,102.905498 388.583884,102.428282 C401.512275,81.424713 423.321336,67.3666076 447.75255,64.2763574 C448.307782,64.2054336 448.805262,63.7039012 448.835657,63.1456297 C448.852882,62.8305255 448.86504,62.5164345 448.875172,62.1993039 C448.894423,61.6400193 448.456722,61.1982655 447.89845,61.2195426 C420.289851,62.297584 395.088607,75.6555705 378.757902,97.7848015 Z M444.744369,40.0548749 C437.404771,24.1568042 421.320272,13.091682 402.691636,13.091682 C377.158064,13.091682 356.386517,33.8622162 356.386517,59.3968016 C356.386517,65.8326276 357.739134,71.946257 360.126226,77.521879 C360.34609,78.0365829 360.841543,78.1145991 361.223518,77.7062808 C382.735712,54.6915157 412.361586,41.4834824 444.146583,40.9910688 C444.705867,40.9829632 444.97943,40.5624865 444.744369,40.0548749 Z M76.331832,0.533107847 C76.3298056,0.547292602 76.3328452,0.547292602 76.3338584,0.533107847 C76.3338584,0.518923092 76.3338584,0.517909895 76.331832,0.533107847 Z M81.0847381,119.991036 C81.1293188,120.548294 80.6733802,121.002206 80.1140956,121.003219 L6.95520836,121.048813 C3.33910903,121.048813 0.411983506,118.120674 0.411983506,114.504575 L0.411983506,1.51996152 C0.411983506,0.960676891 0.865895667,0.50676473 1.42518029,0.507777927 L75.3166088,0.55742457 C75.8758935,0.558437766 76.331832,1.01234993 76.2872514,1.57062136 C75.7441779,8.32357795 70.0945926,13.6459007 63.1967489,13.6459007 L14.5106168,13.5942276 C13.950319,13.5932144 13.49742,14.0471266 13.49742,14.6064112 L13.49742,53.2244068 C13.49742,53.7847046 13.950319,54.2376036 14.5106168,54.2376036 L40.5578798,54.2376036 C44.1719528,54.2376036 47.1000915,57.1657423 47.1000915,60.7808284 C47.1000915,64.3949014 44.1719528,67.3230401 40.5578798,67.3230401 L14.5106168,67.3230401 C13.950319,67.3230401 13.49742,67.7759391 13.49742,68.3362369 L13.49742,106.949166 C13.49742,107.509464 13.950319,107.962363 14.5106168,107.962363 L67.9932224,107.963376 C74.8930926,107.963376 80.5426779,113.241119 81.0847381,119.991036 Z M202.355275,0.00928510751 C202.36946,0.00827191073 202.36946,0.00725871394 202.355275,0.00725871394 C202.34109,0.00725871394 202.34109,0.0102983043 202.355275,0.00928510751 Z M110.173618,121.048813 C110.159433,121.050839 110.159433,121.051853 110.173618,121.051853 C110.187803,121.051853 110.188816,121.046787 110.173618,121.048813 Z M233.821114,0.0275226497 C233.824154,0.0417074047 234.279079,0.0528525694 234.838364,0.0528525694 L309.972985,0.0528525694 C310.53227,0.0528525694 310.986182,0.50676473 310.986182,1.06604936 L310.986182,80.3649091 C310.986182,80.4115162 310.969971,80.4560969 310.969971,80.5006775 C310.89702,91.1240458 306.507852,100.735231 299.470187,107.677655 C299.294904,107.851925 299.097331,108.004918 298.919008,108.177161 C298.140873,108.915781 297.339434,109.631098 296.502534,110.301835 C296.107387,110.624031 295.694003,110.912792 295.288724,111.211685 C294.627106,111.701059 293.964476,112.179288 293.267396,112.624082 C292.799299,112.93108 292.310938,113.216802 291.831696,113.499484 C291.155894,113.895644 290.46996,114.272553 289.767815,114.625145 C289.271348,114.878445 288.768803,115.122625 288.265244,115.350594 C287.517504,115.692042 286.75862,115.992961 285.985551,116.281722 C285.505296,116.467137 285.029093,116.656605 284.535666,116.815677 C283.680528,117.101398 282.799047,117.337473 281.917566,117.564429 C281.48797,117.669802 281.07256,117.797464 280.642964,117.893718 C279.612543,118.115608 278.564898,118.278733 277.504081,118.419567 C277.195056,118.459082 276.896163,118.528993 276.584098,118.562428 C275.216282,118.708328 273.827189,118.79445 272.377305,118.79445 C270.966935,118.79445 269.583921,118.708328 268.213066,118.562428 C267.905054,118.528993 267.600082,118.459082 267.293083,118.419567 C266.234293,118.278733 265.184621,118.115608 264.155213,117.893718 C263.725617,117.797464 263.307167,117.669802 262.880611,117.564429 C261.99913,117.337473 261.122715,117.101398 260.259471,116.815677 C259.770097,116.656605 259.292882,116.467137 258.811613,116.281722 C258.038544,115.992961 257.27966,115.692042 256.535973,115.350594 C256.029375,115.122625 255.526829,114.878445 255.033402,114.625145 C254.331257,114.272553 253.644309,113.895644 252.973573,113.499484 C252.485212,113.216802 252.000904,112.93108 251.530781,112.624082 C250.836741,112.179288 250.168031,111.701059 249.509453,111.211685 C249.102148,110.912792 248.69383,110.624031 248.298683,110.301835 C247.460769,109.631098 246.660344,108.915781 245.880182,108.177161 C245.69882,108.004918 245.511379,107.851925 245.329003,107.677655 C238.230547,100.678492 233.815035,90.9639607 233.815035,80.2291408 C233.815035,76.6150678 236.743174,73.6869291 240.357247,73.6869291 C243.972333,73.6869291 246.899458,76.6150678 246.899458,80.2291408 C246.899458,85.9192539 248.784004,91.1787585 251.949231,95.424053 C252.283586,95.8728992 252.586532,96.2386632 252.606796,96.2569008 C252.618954,96.2670327 252.630099,96.2781779 252.640231,96.2913495 C253.81554,97.7422473 255.136748,99.0350864 256.561303,100.168854 C256.725441,100.301582 256.896671,100.4181 257.065875,100.545763 C257.59983,100.951041 258.147969,101.338083 258.71232,101.699794 C258.946368,101.847721 259.188522,101.991595 259.426624,102.133442 C259.957539,102.448546 260.49352,102.740347 261.039633,103.01391 C261.299011,103.145626 261.565482,103.272275 261.83094,103.392846 C262.397317,103.652224 262.973825,103.887286 263.554387,104.103097 C263.811739,104.196311 264.060986,104.294591 264.321377,104.382739 C264.955638,104.593484 265.605098,104.773833 266.261649,104.934931 C266.479486,104.989644 266.692258,105.053475 266.916174,105.106162 C267.661887,105.270299 268.420771,105.391883 269.182695,105.48611 C269.329609,105.504348 269.470443,105.537783 269.61533,105.549942 C270.535313,105.655314 271.461375,105.704961 272.397569,105.710027 C273.335789,105.704961 274.26489,105.655314 275.179807,105.549942 C275.325708,105.537783 275.470595,105.504348 275.616495,105.48611 C276.376393,105.391883 277.138317,105.270299 277.88099,105.106162 C278.104906,105.053475 278.320717,104.989644 278.539568,104.934931 C279.194093,104.773833 279.844565,104.593484 280.481866,104.382739 C280.739218,104.294591 280.989478,104.196311 281.24075,104.103097 C281.826378,103.887286 282.402887,103.652224 282.970277,103.392846 C283.235735,103.272275 283.498153,103.145626 283.760571,103.01391 C284.306684,102.740347 284.841652,102.448546 285.367501,102.133442 C285.606615,101.991595 285.848769,101.847721 286.090923,101.699794 C286.652234,101.338083 287.201387,100.951041 287.733315,100.545763 C287.900493,100.4181 288.071723,100.301582 288.237887,100.168854 C289.661429,99.0350864 290.984664,97.7422473 292.159972,96.2913495 C292.180236,96.2650063 292.207592,96.247782 292.227856,96.2234653 C295.76594,91.8474683 297.848059,86.2829916 297.848059,80.2291408 C297.848059,80.2291408 297.849072,22.5448081 297.854138,14.1535123 C297.854138,13.5942276 297.400226,13.1403155 296.840941,13.1403155 L246.951131,13.1403155 C239.71184,13.1403155 233.846444,7.27897206 233.815035,0.0528525694 L233.815035,0.0275226497 C233.816048,0.0133378947 233.817062,0.0123246979 233.821114,0.0275226497 Z" id="Combined-Shape" fill="#840033" fill-rule="nonzero"></path>
    </g>
</svg>