<?xml version="1.0" encoding="UTF-8"?>
<svg width="376px" height="126px" viewBox="0 0 376 126" version="1.1" xmlns="http://www.w3.org/2000/svg" xmlns:xlink="http://www.w3.org/1999/xlink">
    <!-- Generator: Sketch 43.2 (39069) - http://www.bohemiancoding.com/sketch -->
    <title>GodEl-logo</title>
    <desc>Created with Sketch.</desc>
    <defs></defs>
    <g id="Page-1" stroke="none" stroke-width="1" fill="none" fill-rule="evenodd">
        <g id="GodEl-logo">
            <path d="M54.7258593,5.06184953 L54.7250412,14.1215047 C54.7250412,16.6603762 56.7913873,18.7179624 59.3395536,18.7179624 C61.8877199,18.7187774 63.954066,16.6603762 63.954066,14.1215047 L63.954066,5.06184953 C63.954066,2.52297806 61.888947,0.464984326 59.3403717,0.464169279 C56.7913873,0.464169279 54.7258593,2.52216301 54.7258593,5.06184953 Z M17.6972808,17.5817868 C15.8824793,19.3647022 15.8616195,22.2748276 17.6510621,24.0834169 L24.0386565,30.5389969 C24.9409446,31.451442 26.1332247,31.9090909 27.3238687,31.9090909 C28.4944709,31.9090909 29.6650731,31.4677429 30.5636801,30.585047 C32.3784817,28.8021317 32.3989325,25.8915987 30.6103079,24.084232 L24.2223044,17.627837 C23.3191983,16.7149843 22.1289633,16.2577429 20.9370923,16.2577429 C19.7673081,16.2577429 18.5967058,16.6986834 17.6972808,17.5817868 Z M94.5529215,17.6755172 L88.1133821,24.0826019 C86.310851,25.8761129 86.3088059,28.7886834 88.110519,30.5834169 C89.010353,31.4832288 90.1928167,31.9327273 91.3748714,31.9327273 C92.5544719,31.9327273 93.7348905,31.4852665 94.6355426,30.5891223 L101.074264,24.1824451 C102.876795,22.3885266 102.878431,19.4763636 101.078354,17.6804075 C100.177702,16.7814107 98.9964654,16.3315047 97.8140017,16.3315047 C96.6344011,16.3315047 95.4539825,16.7797806 94.5529215,17.6755172 Z M4.95726735,54.5625078 C2.40910105,54.5625078 0.342754954,56.6205016 0.342754954,59.1589655 C0.342754954,61.698652 2.40828302,63.7570533 4.95726735,63.7570533 L14.0623605,63.7570533 C16.6105268,63.7578683 18.6760548,61.6998746 18.6760548,59.1597806 C18.6768729,56.6213166 16.6105268,54.5625078 14.0623605,54.5625078 L4.95726735,54.5625078 Z M99.9989623,59.1634483 C99.9989623,61.7023197 102.06449,63.7603135 104.612657,63.7611285 L113.718568,63.7611285 C116.266734,63.7611285 118.332262,61.7031348 118.332262,59.1642633 C118.33308,56.6241693 116.267552,54.5665831 113.718568,54.5665831 L104.613475,54.565768 C102.06449,54.565768 99.9989623,56.6233542 99.9989623,59.1634483 Z" id="Clip-5" fill="#000000"></path>
            <path d="M53.0889794,118.806552 L53.0889794,118.873386 C53.1241547,122.273762 55.908323,125.021693 59.3354635,125.021693 C62.7859179,125.021693 65.5827656,122.2379 65.5831746,118.806552 L53.0889794,118.806552 Z" id="Clip-8" fill="#000000"></path>
            <path d="M136.835712,70.4815987 C136.835712,89.6466144 149.722153,103.603887 167.183432,103.60511 C175.680729,103.60511 180.538605,101.000219 183.712156,97.6511912 L184.927341,97.6511912 L185.361715,99.3566771 C185.929838,101.582571 187.93974,103.139718 190.243315,103.139718 L195.011617,103.139718 L195.012844,67.5995925 L168.866122,67.5987774 L168.866122,78.5770533 L182.872447,78.5778683 L182.872447,84.2534483 C180.630634,88.6253605 175.680729,91.6964577 168.398617,91.6964577 C156.81939,91.6952351 149.442796,82.9489655 149.443614,70.5749216 C149.444432,58.2016928 156.914281,49.3616928 167.747056,49.3625078 C177.644003,49.3625078 180.539832,56.6205016 180.539832,56.6205016 L194.546158,56.6213166 C194.546158,56.6213166 189.129975,37.5479937 167.747465,37.5471787 C149.44525,37.5463636 136.836531,51.5020063 136.835712,70.4815987 Z" id="Clip-11" fill="#000000"></path>
            <path d="M200.626172,79.9728213 C200.626172,65.0868025 212.204173,56.1551097 224.718819,56.1559248 C237.324266,56.1567398 248.343552,65.1817555 248.342325,79.7898433 C248.342325,94.5829467 236.94879,103.607555 224.343343,103.607555 C211.643004,103.60674 200.625354,94.5809091 200.626172,79.9728213 Z M212.859007,79.8811285 C212.85778,87.1383072 217.620356,92.8138871 224.717183,92.8147022 C231.813601,92.8147022 236.108263,87.1399373 236.108263,79.8819436 C236.109081,72.6247649 231.814419,66.9487774 224.718001,66.9487774 C217.621174,66.9487774 212.859007,72.6247649 212.859007,79.8811285 Z" id="Clip-14" fill="#000000"></path>
            <path d="M286.555412,61.3457367 L286.55623,38.1780251 L298.229531,38.1788401 L298.226668,103.305172 L292.861203,103.305172 C290.616935,103.305172 288.643027,101.82953 288.015597,99.684326 L287.768961,98.8395298 L286.367674,98.8395298 C283.472253,102.00232 279.550613,103.770564 274.507862,103.770564 C262.648867,103.770564 252.75192,94.094326 252.752738,80.0441379 C252.752738,65.9951724 262.650503,56.3189342 274.509907,56.3197492 C279.365329,56.3197492 283.567554,57.9963009 286.555412,61.3457367 Z M264.890272,80.044953 C264.890272,88.2316928 270.58663,92.3260815 276.281762,92.3260815 C282.351551,92.3260815 286.554594,87.767931 286.554594,80.045768 C286.555412,72.3231975 282.352369,67.764232 276.28258,67.764232 C270.588266,67.764232 264.89109,71.8578056 264.890272,80.044953 Z" id="Clip-17" fill="#000000"></path>
            <path d="M306.913747,98.2852978 C306.913747,101.058903 309.169877,103.305987 311.952,103.305987 L349.27875,103.307618 L349.27875,91.6773041 L319.146173,91.676489 L319.146991,76.1392476 L343.928828,76.1400627 L343.928828,64.5101567 L319.146991,64.5085266 L319.147809,49.8099687 L348.345786,49.8103762 L348.346604,38.1804702 L306.916201,38.1788401 L306.913747,98.2852978 Z" id="Clip-20" fill="#000000"></path>
            <path d="M355.415209,89.1657367 C355.414391,96.9441379 361.800759,103.307618 369.608046,103.308433 L375.208694,103.308433 L375.208694,92.6093103 L371.943115,92.6093103 C369.364272,92.6093103 367.272158,90.5268652 367.272976,87.9566144 L367.273794,49.9966144 C367.274613,43.471348 361.966001,38.1812853 355.416845,38.1812853 L355.415209,89.1657367 Z" id="Clip-23" fill="#000000"></path>
            <path d="M44.3016913,58.560721 C44.3016913,60.5090909 45.0481445,62.2777429 46.2649655,63.6152351 C46.3107752,63.6751411 46.3623112,63.7354545 46.4232545,63.7953605 L46.5021945,63.8760502 C46.5038305,63.8780878 46.5054666,63.8789028 46.5062846,63.881348 L57.8536005,75.3396865 C58.6299118,76.1164263 59.8892704,76.1164263 60.6659908,75.3396865 L72.0926556,63.9604075 C73.504577,62.5931661 74.3847782,60.6818809 74.3855963,58.5615361 C74.3855963,54.4076489 71.018172,51.0402821 66.864211,51.0402821 C62.7114771,51.0402821 59.3440528,54.4068339 59.3432348,58.5615361 C59.3432348,58.5900627 59.3477339,58.6189969 59.3477339,58.6475235 C59.3448708,58.6475235 59.3420077,58.6467085 59.3395536,58.6467085 C59.3395536,58.6181818 59.3432348,58.5900627 59.3432348,58.5615361 C59.3440528,54.4068339 55.9766285,51.0394671 51.8230766,51.0394671 C47.6691156,51.0394671 44.3016913,54.4068339 44.3016913,58.560721 Z" id="Clip-26" fill="#E85649"></path>
            <path d="M59.3305553,22.6840439 C59.3313733,22.6836364 59.3326004,22.6832288 59.3334184,22.6832288 C59.3354635,22.6832288 59.3375086,22.6840439 59.3395536,22.6840439 L59.3518241,22.6840439 L59.3604134,22.6840439 C78.9338482,22.6954545 94.8547749,38.5473041 94.8539568,58.0289655 C94.8531388,66.9011599 91.5433857,75.3650157 85.5263593,81.8980251 C85.4879119,81.9428527 85.4486464,81.9917555 85.4073358,82.0369906 C82.2276497,85.6574295 80.4762455,90.30279 80.4762455,95.1152351 L80.4754274,116.256332 C80.4754274,118.795204 78.4103084,120.854013 75.861324,120.854013 L42.8096029,120.853197 C40.2618456,120.853197 38.1954995,118.794389 38.1963176,116.255517 L38.1971356,95.1144201 C38.1971356,90.30279 36.4445044,85.6557994 33.2660452,82.0353605 C33.2247347,81.9884953 33.1846512,81.9424451 33.1470217,81.8939498 C27.1308134,75.361348 23.8218783,66.8983072 23.8218783,58.0265204 C23.8226963,38.545674 39.7509853,22.6946395 59.3305553,22.6840439 Z M40.4229977,76.2236677 C43.5953216,79.9182759 45.7651486,84.3231975 46.7766438,89.0178683 L71.8967372,89.0178683 C72.9090505,84.3187147 75.0805135,79.9158307 78.2581546,76.219185 C78.3530462,76.0928527 78.4557091,75.9726332 78.5645072,75.8568966 C83.1172583,71.0008464 85.624932,64.6699687 85.6257501,58.0289655 C85.6257501,43.6111912 73.8375156,31.8822571 59.3456889,31.8785893 C44.8456819,31.881442 33.0509031,43.6103762 33.0500851,58.0281505 C33.0500851,64.667931 35.5569408,70.9992163 40.1096919,75.8540439 C40.2209441,75.9726332 40.325243,76.0969279 40.4229977,76.2236677 Z M47.4245243,111.657837 L67.5652635,111.659875 L71.2472207,111.659875 L71.2480387,98.2132288 L47.4245243,98.2115987 L47.4245243,111.657837 Z" id="Clip-2" fill="#000000"></path>
        </g>
    </g>
</svg>