<svg id="Layer_1" data-name="Layer 1" xmlns="http://www.w3.org/2000/svg" viewBox="0 0 370 140.47"><defs><style>.cls-1{fill:#1d1d1b}</style></defs><path class="cls-1" d="M116.2 142.79a15 15 0 0 1-3.25 4.74 14.84 14.84 0 0 1-4.79 3.14 15.69 15.69 0 0 1-11.75 0 14.83 14.83 0 0 1-4.8-3.14 15 15 0 0 1-3.25-4.71 14.4 14.4 0 0 1-1.2-5.89 14.72 14.72 0 0 1 4.4-10.61 15 15 0 0 1 4.79-3.15 15.82 15.82 0 0 1 11.77 0 14.81 14.81 0 0 1 8.08 7.83 15 15 0 0 1 0 11.74zm-2.69-10.61a12.54 12.54 0 0 0-2.61-3.89 12.39 12.39 0 0 0-3.87-2.64 11.66 11.66 0 0 0-4.74-1 12.12 12.12 0 0 0-4.79 1 11.74 11.74 0 0 0-3.87 2.63 12.6 12.6 0 0 0-2.58 3.91 12.43 12.43 0 0 0 0 9.53 12.7 12.7 0 0 0 2.58 3.89 12.17 12.17 0 0 0 13.37 2.58 12.56 12.56 0 0 0 3.89-2.63 12.17 12.17 0 0 0 2.61-3.89 12 12 0 0 0 .95-4.75 11.88 11.88 0 0 0-.94-4.74zM124.06 125.13v10.05h9.51l-.08 2.65h-9.39v13.27l-2.77.29v-28.82H135l.29 2.56zM152.3 145.48a14.49 14.49 0 0 0 3.14 2.58 7.25 7.25 0 0 0 3.89 1.1 6.78 6.78 0 0 0 2.23-.37 5.53 5.53 0 0 0 1.88-1.1 5.41 5.41 0 0 0 1.28-1.72 5.08 5.08 0 0 0 .48-2.23 4.25 4.25 0 0 0-1-3 8.31 8.31 0 0 0-2.58-1.82 26.56 26.56 0 0 0-3.35-1.28 16.48 16.48 0 0 1-3.35-1.45 8 8 0 0 1-2.58-2.36 6.74 6.74 0 0 1-1-3.95 7.24 7.24 0 0 1 3-6.06 9.17 9.17 0 0 1 3.06-1.42 10.39 10.39 0 0 1 3.47-.33 10.84 10.84 0 0 1 3.41.8 8.58 8.58 0 0 1 2.89 2l-.91 2.53a13.08 13.08 0 0 0-2.85-1.88 7.47 7.47 0 0 0-3.31-.76 7.92 7.92 0 0 0-2.21.31 5.7 5.7 0 0 0-1.86.93 4.47 4.47 0 0 0-1.28 1.57 4.85 4.85 0 0 0-.48 2.19 3.9 3.9 0 0 0 1 2.89 8.67 8.67 0 0 0 2.56 1.74 29.08 29.08 0 0 0 3.35 1.28 16 16 0 0 1 3.35 1.49 8 8 0 0 1 2.56 2.42 7 7 0 0 1 1 4 8.13 8.13 0 0 1-.91 3.95 7.62 7.62 0 0 1-2.38 2.69 8.81 8.81 0 0 1-3.33 1.38 10.89 10.89 0 0 1-7.36-1.09 9.21 9.21 0 0 1-3-2.55zM198.86 151.76h-.54L190 129.1l-8.6 22.66h-.58l-10.92-29 2.85-.54 8.4 22.53 8.64-22.53h.41l8.52 22.37L207 122.2l2.85.54zM228.3 151.27H212v-28.7h15.79l.29 2.56H214.7v10.34h12.2V138h-12.2v10.63h13.85zM233.64 122.57h8.81a15.58 15.58 0 0 1 6.45 1.24 13.87 13.87 0 0 1 4.61 3.25 13.5 13.5 0 0 1 2.77 4.59 15.24 15.24 0 0 1 .91 5.28 15.91 15.91 0 0 1-1 5.27 13.48 13.48 0 0 1-2.77 4.59 13.78 13.78 0 0 1-4.63 3.25 15.84 15.84 0 0 1-6.47 1.24h-8.73zm2.73 26.13h5.42a14.64 14.64 0 0 0 4.92-.8 11.34 11.34 0 0 0 3.93-2.34 11.08 11.08 0 0 0 2.61-3.7 12.09 12.09 0 0 0 .95-4.9 13.42 13.42 0 0 0-.87-5 10.23 10.23 0 0 0-2.48-3.72 10.87 10.87 0 0 0-3.84-2.34 14.62 14.62 0 0 0-5-.81h-5.67zM278.55 151.27h-16.34v-28.7H278l.29 2.56h-13.35v10.34h12.2V138h-12.2v10.63h13.86zM308.49 151.64h-1.2l-20-23.61v23l-2.77.29v-29.04l1.24-.08q4.92 6 10 11.8t10 11.77v-23.24l2.77-.29z" transform="translate(-13.55 -11.34)"/><path class="cls-1" d="M11.61 93.11V33.73H0v-3.37h25.37v62.75h11.61v3.37H0v-3.37h11.61z"/><path class="cls-1" d="M69.28 104.45V14.71H56.87v-3.37h53.84q20.65 0 31.31 12.88t10.66 35.42a71.56 71.56 0 0 1-2.16 18 50.72 50.72 0 0 1-6.75 15.25 31.09 31.09 0 0 1-13 10.93 45.37 45.37 0 0 1-19.7 4h-54.2v-3.37zm15.39-89.74v89.74h22.8q14.3 0 21.25-12.75t7-32q0-44.93-27.66-44.93zM165.22 107.82v-3.37h11.6V42.1h-11.6v-3.37h60.59l.81 21.72h-4.05q-1.48-18.34-17.27-18.35h-15.52v28.34h7.15q6.07 0 8-3.31t2-11.27h3.24V89.2h-3.24q0-9.85-2-12.62T195 73.81h-5.26v30.63h12.55q11.87 0 16.94-5.13t6.27-16.06h4l-.81 24.56zM239.44 107.82v-3.37H250l24.29-67.34h5.26l24.56 67.34h10.39v3.38h-36.3v-3.37h12.14l-7.42-20.51H261.3l-7.3 20.5h11.34v3.38zm42.24-27.26l-9.45-26.45H272l-9.45 26.45zM320.13 107.82v-3.37h11.61V42.1h-11.61v-3.37h37.24v3.37h-12.68v62.34H361a20.54 20.54 0 0 0 9.11-1.82 12.55 12.55 0 0 0 5.67-5.46 32.5 32.5 0 0 0 2.84-7q.87-3.3 1.69-8.43h3.23v26z" transform="translate(-13.55 -11.34)"/><path class="cls-1" d="M11.59 0h13.79v13.78H11.59z"/></svg>