<svg width="242" height="131" xmlns="http://www.w3.org/2000/svg"><g fill="none" fill-rule="evenodd"><path d="M108.355 41.924c-1.314-6.01-1.432-12.522-.354-18.566 2.128-11.931 10.208-20.34 22.28-22.379 11.743-1.984 23.918.978 31.368 10.92 5.092 6.795 6.343 14.486 4.749 22.645-3.78 19.345-20.686 33.436-36.795 42.92 7.193-12.552 20.463-43.678-2.793-47.053-8.49-1.232-14.938 4.151-18.455 11.513" fill="#C8102E"/><path d="M127.603 78.2c-10.373-3.33-21.967-7.689-30.154-15.075-9.334-8.419-4.064-21.974 9.258-20.459-6.533-5.728-16.79-11.594-25.604-7.98-6.212 2.548-11.12 9.877-10.967 16.71.548 24.584 41.045 26.426 57.467 26.805" fill="#FFCD00"/><path fill="#C8102E" d="M0 89.721h3.246v10.347h.27L14.1 89.72h4.53L7.067 100.778l12.34 12.883h-4.732L3.516 101.69h-.27v11.97H0zM29.247 105.951c-2.875 0-6.391.507-6.391 3.077 0 1.826 1.352 2.604 3.449 2.604 3.381 0 4.565-2.502 4.565-4.666v-1.015h-1.623zm-8.59-6.357c1.691-1.589 4.126-2.366 6.357-2.366 4.735 0 6.696 2.569 6.696 5.342v8.183c0 1.116.033 2.062.134 2.908H31.14a29.47 29.47 0 0 1-.102-2.435h-.067c-1.352 2.062-3.178 2.84-5.613 2.84-2.976 0-5.546-1.69-5.546-4.801 0-4.125 3.957-5.545 8.826-5.545h2.232v-.677c0-1.656-1.218-3.381-3.822-3.381-2.332 0-3.449.98-4.564 1.826l-1.826-1.894zM37.834 113.66h3.043V88.099h-3.043zM45.17 97.633h2.84v2.503h.067c.305-.947 2.266-2.909 5.14-2.909 2.366 0 3.99 1.015 5.004 2.976 1.049-1.961 3.145-2.976 5.073-2.976 4.935 0 6.085 3.517 6.085 7.101v9.333h-3.043v-8.927c0-2.434-.507-4.666-3.449-4.666-2.941 0-4.091 1.995-4.091 4.835v8.758h-3.043v-8.386c0-3.043-.44-5.207-3.38-5.207-2.199 0-4.16 1.657-4.16 5.274v8.319H45.17V97.633zM82.091 105.951c-2.874 0-6.39.507-6.39 3.077 0 1.826 1.352 2.604 3.448 2.604 3.382 0 4.565-2.502 4.565-4.666v-1.015h-1.623zm-8.589-6.357c1.69-1.589 4.126-2.366 6.357-2.366 4.734 0 6.696 2.569 6.696 5.342v8.183c0 1.116.033 2.062.134 2.908h-2.705a29.47 29.47 0 0 1-.101-2.435h-.067c-1.353 2.062-3.178 2.84-5.613 2.84-2.976 0-5.545-1.69-5.545-4.801 0-4.125 3.955-5.545 8.824-5.545h2.232v-.677c0-1.656-1.218-3.381-3.821-3.381-2.332 0-3.449.98-4.565 1.826l-1.826-1.894zM90.442 97.633h3.043v2.469h.068c.778-1.69 2.806-2.875 4.8-2.875.474 0 .948.068 1.353.203l-.134 3.28c-.508-.135-1.014-.236-1.488-.236-2.976 0-4.599 1.623-4.599 5.14v8.047h-3.043V97.633zM111.506 113.66h3.043V88.099h-3.043zM130.88 91.445c0 1.218-.879 2.131-2.096 2.131-1.218 0-2.097-.913-2.097-2.13 0-1.116 1.049-1.928 2.097-1.928 1.047 0 2.096.812 2.096 1.927zm-3.38 14.506c-2.875 0-6.392.507-6.392 3.077 0 1.826 1.353 2.604 3.45 2.604 3.38 0 4.564-2.502 4.564-4.666v-1.015H127.5zm-3.517-14.506c0 1.218-.88 2.131-2.097 2.131s-2.096-.913-2.096-2.13c0-1.116 1.047-1.928 2.096-1.928 1.048 0 2.097.812 2.097 1.927zm-5.073 8.15c1.69-1.59 4.126-2.367 6.357-2.367 4.734 0 6.696 2.569 6.696 5.342v8.183c0 1.116.033 2.062.134 2.907h-2.705a29.47 29.47 0 0 1-.101-2.434h-.068c-1.352 2.062-3.177 2.84-5.613 2.84-2.975 0-5.544-1.69-5.544-4.801 0-4.125 3.955-5.545 8.824-5.545h2.232v-.677c0-1.656-1.218-3.38-3.822-3.38-2.332 0-3.448.98-4.564 1.825l-1.826-1.893zM135.849 97.633h3.043v2.469h.068c.777-1.69 2.806-2.875 5.274-2.875 3.11 0 5.816 1.86 5.816 6.12v10.314h-3.043v-9.468c0-3.01-1.725-4.125-3.652-4.125-2.536 0-4.463 1.623-4.463 5.342v8.25h-3.043V97.634zM162.627 101.657c-.71-.88-1.758-1.59-3.28-1.59-1.42 0-2.671.643-2.671 1.793 0 1.927 2.74 2.198 4.091 2.502 2.638.642 4.666 1.657 4.666 4.666 0 3.618-3.313 5.038-6.492 5.038-2.636 0-4.597-.676-6.187-2.84l2.3-1.894c.98.981 2.13 1.894 3.887 1.894 1.556 0 3.247-.642 3.247-2.029 0-1.826-2.536-2.164-3.854-2.468-2.604-.643-4.903-1.488-4.903-4.565 0-3.347 3.077-4.936 6.085-4.936 2.131 0 4.328.744 5.478 2.637l-2.367 1.792zM177.165 100.27h-4.36v7.27c0 1.793 0 3.686 2.299 3.686.71 0 1.555-.101 2.164-.473v2.772c-.71.406-2.131.54-2.74.54-4.7 0-4.768-2.873-4.768-5.443v-8.351h-3.516v-2.638h3.516v-4.497h3.044v4.497h4.361v2.638zM180.546 97.633h3.043v2.469h.067c.779-1.69 2.807-2.875 4.802-2.875.473 0 .947.068 1.352.203l-.134 3.28c-.508-.135-1.014-.236-1.488-.236-2.976 0-4.599 1.623-4.599 5.14v8.047h-3.043V97.633zM200.375 105.951c-2.875 0-6.39.507-6.39 3.077 0 1.826 1.352 2.604 3.448 2.604 3.381 0 4.565-2.502 4.565-4.666v-1.015h-1.623zm-8.59-6.357c1.691-1.589 4.126-2.366 6.358-2.366 4.734 0 6.695 2.569 6.695 5.342v8.183c0 1.116.033 2.062.135 2.908h-2.705a29.468 29.468 0 0 1-.101-2.435h-.068c-1.352 2.062-3.178 2.84-5.613 2.84-2.976 0-5.545-1.69-5.545-4.801 0-4.125 3.956-5.545 8.825-5.545h2.232v-.677c0-1.656-1.218-3.381-3.821-3.381-2.333 0-3.45.98-4.565 1.826l-1.826-1.894zM219.612 113.66h3.043V97.634h-3.043v16.028zm1.556-23.973a2.251 2.251 0 0 1 2.231 2.232 2.252 2.252 0 0 1-2.231 2.232 2.252 2.252 0 0 1-2.232-2.232 2.252 2.252 0 0 1 2.232-2.232zm-11.26 10.584h-3.449v-2.638h3.448V94.05c0-4.26 1.488-6.357 5.478-6.357.676 0 1.42.034 2.265.237l-.338 2.705c-.575-.237-1.115-.304-1.723-.304-2.233 0-2.605 1.386-2.605 3.618v3.685h3.62v2.638h-3.653v13.39h-3.044v-13.39zM226.983 88.098h3.043v16.5l6.898-6.93h4.226l-7.473 7.269 8.116 8.724h-4.328l-7.44-8.319v8.319h-3.042zM67.015 126.312c.723 0 1.57-.061 1.57-1 0-.856-.796-.958-1.458-.958h-1.112v1.958h1zm-2.285-3.06h2.509c1.387 0 2.692.449 2.692 2.071 0 1.04-.602 1.805-1.672 1.959l1.917 3.191h-1.55l-1.673-3.059h-.938v3.06H64.73v-7.222zM71.31 123.253h4.783v1.162h-3.498v1.775h3.314v1.163h-3.314v1.958h3.682v1.163H71.31zM84.11 129.943c-.877.469-1.876.714-2.988.714-2.223 0-3.814-1.51-3.814-3.764 0-2.315 1.59-3.824 3.814-3.824 1.102 0 2.09.235 2.845.908l-.948.958c-.459-.448-1.163-.703-1.887-.703-1.489 0-2.478 1.142-2.478 2.58 0 1.54.99 2.683 2.478 2.683.653 0 1.245-.123 1.693-.378v-1.703h-1.479v-1.163h2.764v3.692zM85.754 130.473h1.286v-7.22h-1.286zM92.21 129.495c1.5 0 2.488-1.143 2.488-2.682 0-1.439-.989-2.58-2.488-2.58-1.488 0-2.478 1.141-2.478 2.58 0 1.539.99 2.682 2.478 2.682m-.01-6.427c2.254-.04 3.845 1.47 3.845 3.785 0 2.254-1.591 3.763-3.845 3.804-2.223 0-3.814-1.51-3.814-3.764 0-2.315 1.59-3.825 3.814-3.825M97.424 123.253h1.703l3.498 5.365h.02v-5.365h1.286v7.22h-1.632l-3.57-5.538h-.02v5.539h-1.285zM108.87 123.253h1.285v3.06h.06l2.989-3.06h1.733l-3.376 3.335 3.6 3.886h-1.804l-3.132-3.55h-.07v3.55h-1.286zM120.375 127.72l-1.111-2.937-1.133 2.936h2.244zm-1.632-4.468h1.112l3.11 7.221h-1.468l-.673-1.651h-3.13l-.654 1.651h-1.438l3.141-7.22zM123.926 123.253h1.285v6.058h3.07v1.163h-4.355zM129.403 123.253h1.959l1.928 5.058 1.948-5.058h1.937v7.22h-1.224v-5.997h-.02l-2.193 5.998h-.897l-2.193-5.998h-.02v5.998h-1.225zM142.94 127.72l-1.112-2.937-1.132 2.936h2.244zm-1.632-4.468h1.112l3.11 7.221h-1.468l-.673-1.651h-3.13l-.654 1.651h-1.438l3.14-7.22zM148.774 126.312c.724 0 1.571-.061 1.571-1 0-.856-.795-.958-1.458-.958h-1.112v1.958h1zm-2.283-3.06h2.508c1.387 0 2.693.449 2.693 2.071 0 1.04-.603 1.805-1.673 1.959l1.917 3.191h-1.55l-1.672-3.059h-.939v3.06h-1.284v-7.222zM156.243 123.253h1.285v6.058h3.07v1.163h-4.355zM166.005 121.295c.448 0 .794.316.794.734s-.346.734-.794.734c-.45 0-.775-.347-.775-.734s.325-.734.775-.734zm.05 6.425l-1.112-2.937-1.131 2.937h2.243zm-2.151-6.425c.448 0 .796.316.796.734s-.348.734-.796.734c-.45 0-.776-.347-.776-.734s.326-.734.776-.734zm.52 1.958h1.11l3.111 7.22h-1.468l-.673-1.651h-3.13l-.653 1.652h-1.439l3.141-7.221zM169.607 123.253h1.702l3.499 5.365h.02v-5.365h1.284v7.22h-1.631l-3.57-5.538h-.02v5.539h-1.284z"/></g></svg>