<svg width="588px" height="140px" viewBox="0 0 588 140" version="1.1" xmlns="http://www.w3.org/2000/svg" xmlns:xlink="http://www.w3.org/1999/xlink">
    <g id="Page-1" stroke="none" stroke-width="1" fill="none" fill-rule="evenodd">
        <g id="Group-2-Copy" fill="#5DCC94">
            <text id="Kvittar" font-family="Inter-Bold, Inter" font-size="126" font-weight="bold">
                <tspan x="172" y="138">Kvittar</tspan>
            </text>
            <g id="noun_receipt_357477">
                <g id="Group">
                    <path d="M8.98156794,64.6098154 L12.574532,64.6098154 L26.9514417,138 L134.757208,138 L149.12738,64.6098154 L152.732978,64.6098154 C157.681094,64.6098154 161.707808,60.5049669 161.707808,55.4386223 C161.707808,50.3722778 157.681094,46.2674293 152.732978,46.2674293 L131.558409,46.2674293 L101.593459,4.18004702 C99.9612127,1.88896879 97.3166025,0.39770391 94.3292036,0.39770391 C89.3676117,0.39770391 85.3476357,4.50255241 85.3476357,9.56889694 C85.3476357,11.5847706 85.9927858,13.4458416 87.0716857,14.9577469 L87.0649479,14.964627 L109.344526,46.2674293 L52.36244,46.2674293 L74.6420177,14.964627 L74.6352799,14.9577469 C75.7141798,13.4458416 76.3593299,11.5847706 76.3593299,9.56889694 C76.3593299,4.50255241 72.3393539,0.39770391 67.377762,0.39770391 C64.3903631,0.39770391 61.7516485,1.88896879 60.120244,4.18004702 L60.1135062,4.18004702 L30.1485564,46.2674293 L8.98156794,46.2674293 C4.01997597,46.2674293 0,50.3722778 0,55.4386223 C0,60.5049669 4.0208182,64.6098154 8.98156794,64.6098154 Z M120.728015,118.91647 L41.9782627,118.91647 L31.136286,63.6746722 L131.575918,63.6746722 L120.728015,118.91647 Z" id="Shape" fill-rule="nonzero"></path>
                    <path d="M93.5651012,105.743381 C98.0901968,105.743381 101.75037,102.385371 101.75037,98.2407999 L101.75037,83.2300092 C101.75037,79.0854382 98.0894287,75.727428 93.5651012,75.727428 C89.0407738,75.727428 85.3736874,79.0854382 85.3736874,83.2300092 L85.3736874,98.2407999 C85.3736874,102.385371 89.0400057,105.743381 93.5651012,105.743381 Z" id="Path"></path>
                    <path d="M69.4595895,105.743381 C73.9846851,105.743381 77.6510034,102.385371 77.6510034,98.2407999 L77.6510034,83.2300092 C77.6510034,79.0854382 73.9846851,75.727428 69.4595895,75.727428 C64.9344939,75.727428 61.2681756,79.0854382 61.2681756,83.2300092 L61.2681756,98.2407999 C61.2681756,102.385371 64.9344939,105.743381 69.4595895,105.743381 Z" id="Path"></path>
                </g>
            </g>
        </g>
    </g>
</svg>