<svg xmlns="http://www.w3.org/2000/svg" width="163" height="46" viewBox="0 0 163 46">
	<path d="M0 26.838v-25.3C0 1.067.243.824.713.824H4.63c.382 0 .696.192.835.54L13.38 19.53c.226.592.66.592.923 0l7.917-18.166c.14-.348.453-.54.835-.54h3.898c.47 0 .713.243.713.714v25.3c0 .47-.243.714-.713.714h-2.68c-.47 0-.713-.245-.713-.714V9.298c0-.696-.54-.852-.818-.175l-7.675 17.89c-.139.347-.45.539-.852.539h-.8c-.4 0-.714-.192-.852-.54l-7.64-17.87c-.278-.68-.818-.54-.818.173v17.523c0 .47-.244.714-.713.714H.713c-.47 0-.713-.245-.713-.714M34.67 26.838v-25.3c0-.471.242-.714.713-.714h13.904c.45 0 .713.243.713.714v2.297c0 .469-.262.713-.713.713h-9.798c-.47 0-.714.261-.714.714v6.385c0 .47.245.713.714.713h8.404c.452 0 .715.245.715.714v2.28c0 .47-.263.714-.715.714h-8.404c-.47 0-.714.243-.714.712v6.334c0 .453.245.714.714.714h9.798c.45 0 .713.244.713.715v2.295c0 .47-.262.714-.713.714H35.383c-.471 0-.714-.245-.714-.714M60.902 12.466h5.082c2.574 0 4.298-1.445 4.298-3.95 0-2.437-1.724-4.074-4.298-4.074h-5.082c-.47 0-.714.245-.714.715v6.594c0 .47.245.715.714.715m-4.82 14.373v-25.3c0-.471.243-.716.714-.716h9.517c4.821 0 7.988 3.447 7.988 7.693 0 3.08-1.722 5.567-4.28 6.716-.453.192-.592.504-.35.94L75.868 26.7c.297.452.069.85-.487.85h-2.89c-.4 0-.679-.155-.869-.503l-5.882-10.58c-.192-.347-.469-.485-.87-.485h-3.967c-.47 0-.714.242-.714.711V26.84c0 .469-.242.712-.713.712h-2.68c-.47 0-.713-.243-.713-.712M78.46 14.187c0-7.725 6.09-13.71 13.92-13.71 3.445 0 6.96 1.39 9.414 3.601.366.331.348.66 0 1.008l-1.88 1.794c-.312.33-.68.312-1.01 0-1.723-1.566-4.105-2.489-6.524-2.489-5.499 0-9.815 4.282-9.815 9.796 0 5.517 4.316 9.798 9.815 9.798 2.419 0 4.801-.923 6.525-2.507.33-.293.697-.293 1.008.018l1.881 1.793c.348.349.366.678.034.992-2.47 2.21-5.985 3.619-9.448 3.619-7.83 0-13.92-5.986-13.92-13.713M106.614 18.538v-17c0-.47.26-.715.713-.715h2.678c.47 0 .715.245.715.715v16.253c0 4.575 2.714 6.385 6.37 6.385 3.67 0 6.403-1.81 6.403-6.385V1.538c0-.47.243-.715.695-.715h2.696c.454 0 .715.245.715.715v17c0 5.83-4.474 9.362-10.51 9.362-6.003 0-10.475-3.532-10.475-9.362M138.656 12.466h5.082c2.575 0 4.297-1.445 4.297-3.95 0-2.437-1.722-4.074-4.297-4.074h-5.082c-.47 0-.715.245-.715.715v6.594c0 .47.245.715.715.715m-4.819 14.373v-25.3c0-.471.243-.716.712-.716h9.519c4.82 0 7.987 3.447 7.987 7.693 0 3.08-1.723 5.567-4.28 6.716-.454.192-.593.504-.349.94L153.62 26.7c.297.452.07.85-.487.85h-2.888c-.4 0-.679-.155-.87-.503l-5.883-10.58c-.19-.347-.469-.485-.869-.485h-3.967c-.47 0-.715.242-.715.711V26.84c0 .469-.242.712-.711.712h-2.681c-.47 0-.712-.243-.712-.712M158.771 26.838v-25.3c0-.471.243-.714.714-.714h2.68c.468 0 .713.243.713.714v25.3c0 .47-.245.714-.714.714h-2.68c-.47 0-.713-.245-.713-.714M.813 45.352v-8.961c0-.238.137-.376.375-.376h1.286c.247 0 .375.138.375.376v8.961c0 .248-.128.376-.375.376H1.188c-.238 0-.375-.128-.375-.376M.555 32.73c0-.724.587-1.275 1.284-1.275.689 0 1.276.55 1.276 1.275 0 .699-.587 1.266-1.276 1.266-.697 0-1.284-.567-1.284-1.266M9.668 45.352v-8.961c0-.238.137-.376.375-.376h1.296c.246 0 .375.138.375.376v.33c0 .339.174.386.413.137.623-.661 1.468-1.028 2.503-1.028 2.12 0 3.624 1.341 3.624 3.991v5.531c0 .248-.128.376-.376.376h-1.294c-.247 0-.375-.128-.375-.376v-5.237c0-1.881-.918-2.514-2.175-2.514-1.302 0-2.302.844-2.32 2.56v5.191c0 .248-.13.376-.375.376h-1.296c-.238 0-.375-.128-.375-.376M25.21 42.884v-4.926c0-.237-.129-.375-.376-.375h-.835c-.24 0-.377-.13-.377-.376v-.816c0-.238.138-.376.377-.376h.835c.247 0 .375-.13.375-.377v-1.937c0-.236.128-.374.376-.374h1.294c.247 0 .377.138.377.374v1.937c0 .248.128.377.375.377h1.642c.24 0 .377.138.377.376v.816c0 .246-.138.376-.377.376H27.63c-.247 0-.375.138-.375.375v4.689c0 .944.54 1.44 1.32 1.44h.679c.247 0 .375.129.375.377v.888c0 .248-.128.376-.375.376h-1.093c-1.779 0-2.953-.999-2.953-2.844M42.329 39.766c.257 0 .413-.165.303-.43-.45-1.139-1.523-1.892-2.843-1.892-1.322 0-2.414.745-2.891 1.891-.11.258.046.431.313.431h5.118zm-7.66 1.1c0-2.797 2.202-5.043 5.11-5.043 2.78 0 4.954 2.054 5.018 4.842v.12c-.018.23-.166.375-.395.375h-7.367c-.247 0-.403.146-.347.395.238 1.56 1.56 2.65 3.127 2.65 1.018 0 1.945-.43 2.542-1.21.146-.192.311-.257.523-.156l.962.404c.238.111.312.284.194.485-.882 1.348-2.394 2.184-4.211 2.184-2.991 0-5.156-2.238-5.156-5.045zM50.687 45.352v-8.961c0-.238.138-.376.376-.376H52.3c.24 0 .377.138.377.376v.642c0 .34.174.404.413.146.577-.643 1.458-1.11 2.558-1.228.258-.028.396.11.396.356V37.5c0 .22-.13.375-.376.385-1.78.082-2.935.843-2.935 2.862v4.604c0 .248-.138.376-.377.376h-1.294c-.238 0-.376-.128-.376-.376M61.615 45.352v-8.961c0-.238.138-.376.376-.376h1.293c.248 0 .378.138.378.376v.33c0 .339.173.386.413.137.623-.661 1.467-1.028 2.502-1.028 2.12 0 3.624 1.341 3.624 3.991v5.531c0 .248-.128.376-.375.376h-1.294c-.248 0-.376-.128-.376-.376v-5.237c0-1.881-.918-2.514-2.174-2.514-1.302 0-2.302.844-2.32 2.56v5.191c0 .248-.13.376-.378.376h-1.293c-.238 0-.376-.128-.376-.376M84.422 40.859c0-1.845-1.404-3.221-3.193-3.221-1.779 0-3.21 1.376-3.21 3.22 0 1.854 1.431 3.24 3.21 3.24 1.79 0 3.193-1.386 3.193-3.24m-8.44 0c0-2.853 2.21-5.055 4.798-5.055 1.266 0 2.302.441 3.071 1.156.25.23.442.176.442-.138v-.431c0-.238.13-.375.375-.375h1.286c.247 0 .375.137.375.375v8.962c0 .249-.128.377-.375.377H84.66c-.248 0-.376-.128-.376-.377v-.394c0-.33-.157-.441-.359-.24-.769.745-1.833 1.203-3.145 1.203-2.588 0-4.798-2.201-4.798-5.062M93.513 42.884v-4.926c0-.237-.128-.375-.375-.375h-.835c-.24 0-.377-.13-.377-.376v-.816c0-.238.138-.376.377-.376h.835c.247 0 .375-.13.375-.377v-1.937c0-.236.128-.374.376-.374h1.295c.246 0 .374.138.374.374v1.937c0 .248.13.377.377.377h1.643c.238 0 .376.138.376.376v.816c0 .246-.138.376-.376.376h-1.643c-.247 0-.377.138-.377.375v4.689c0 .944.541 1.44 1.322 1.44h.679c.247 0 .375.129.375.377v.888c0 .248-.128.376-.375.376h-1.09c-1.782 0-2.956-.999-2.956-2.844M103.946 45.352v-8.961c0-.238.138-.376.376-.376h1.285c.246 0 .376.138.376.376v8.961c0 .248-.13.376-.376.376h-1.285c-.238 0-.376-.128-.376-.376m-.257-12.622c0-.724.587-1.275 1.284-1.275.689 0 1.276.55 1.276 1.275 0 .699-.587 1.266-1.276 1.266-.697 0-1.284-.567-1.284-1.266M120.368 40.867c0-1.807-1.43-3.201-3.209-3.201-1.78 0-3.202 1.385-3.202 3.2 0 1.836 1.421 3.211 3.202 3.211a3.18 3.18 0 0 0 3.21-3.21m-8.393 0c0-2.852 2.276-5.036 5.192-5.036 2.917 0 5.191 2.184 5.191 5.036 0 2.861-2.274 5.045-5.191 5.045-2.916 0-5.192-2.184-5.192-5.045M128.155 45.352v-8.961c0-.238.137-.376.375-.376h1.295c.246 0 .374.138.374.376v.33c0 .339.176.386.414.137.624-.661 1.469-1.028 2.504-1.028 2.118 0 3.624 1.341 3.624 3.991v5.531c0 .248-.13.376-.376.376h-1.294c-.249 0-.377-.128-.377-.376v-5.237c0-1.881-.915-2.514-2.173-2.514-1.303 0-2.302.844-2.322 2.56v5.191c0 .248-.128.376-.374.376h-1.295c-.238 0-.375-.128-.375-.376M150.96 40.859c0-1.845-1.402-3.221-3.191-3.221-1.78 0-3.211 1.376-3.211 3.22 0 1.854 1.432 3.24 3.21 3.24 1.79 0 3.192-1.386 3.192-3.24m-8.439 0c0-2.853 2.21-5.055 4.797-5.055 1.267 0 2.304.441 3.073 1.156.25.23.441.176.441-.138v-.431c0-.238.128-.375.375-.375h1.286c.248 0 .376.137.376.375v8.962c0 .249-.128.377-.376.377H151.2c-.247 0-.375-.128-.375-.377v-.394c0-.33-.158-.441-.36-.24-.768.745-1.833 1.203-3.146 1.203-2.586 0-4.797-2.201-4.797-5.062M159.686 45.352V32.014c0-.246.138-.374.375-.374h1.294c.238 0 .376.128.376.374v13.338c0 .248-.138.376-.376.376h-1.294c-.237 0-.375-.128-.375-.376"/>
</svg>
