<?xml version="1.0" encoding="UTF-8" standalone="no"?>
<svg width="209px" height="66px" viewBox="0 0 209 66" version="1.1" xmlns="http://www.w3.org/2000/svg" xmlns:xlink="http://www.w3.org/1999/xlink" xmlns:sketch="http://www.bohemiancoding.com/sketch/ns">
    <title>logo_color</title>
    <description>Created with Sketch (http://www.bohemiancoding.com/sketch)</description>
    <defs>
        <path id="path-1" d="M0,-0.208 L208.581,-0.208 L208.581,64.94 L0,64.94"/>
        <path id="path-3" d="M0,-0.208 L208.581,-0.208 L208.581,64.94 L0,64.94 L0,-0.208 Z"/>
        <path id="path-5" d="M0,-0.208 L208.581,-0.208 L208.581,64.94 L0,64.94 L0,-0.208 Z"/>
    </defs>
    <g id="Page-1" stroke="none" stroke-width="1" fill="none" fill-rule="evenodd" sketch:type="MSPage">
        <g id="vaxjobostader_logo_tag_cmyk_SVART" sketch:type="MSLayerGroup" transform="translate(0.000000, 1.000000)">
            <path d="M34.055,-0.208 C34.055,-0.208 26.017,1.399 23.005,7.057 C21.052,10.724 21.691,15.181 22.382,17.871 C22.505,17.656 22.616,17.451 22.745,17.232 C23.107,16.634 23.466,16.008 23.857,15.391 C24.246,14.773 24.632,14.14 25.04,13.523 C26.648,11.037 28.34,8.625 29.638,6.84 C30.937,5.055 31.836,3.893 31.836,3.893 L31.889,3.928 C31.889,3.928 31.181,5.214 30.179,7.172 C29.177,9.129 27.887,11.761 26.703,14.424 C26.4,15.087 26.122,15.759 25.839,16.416 C25.555,17.072 25.305,17.728 25.048,18.356 C24.833,18.903 24.634,19.431 24.448,19.941 C26.849,19.225 31.938,17.26 34.197,13.016 C37.21,7.358 34.055,-0.208 34.055,-0.208" id="Fill-1" fill="#79BB42" sketch:type="MSShapeGroup"/>
            <g id="Group-5" fill="#39AB47" sketch:type="MSShapeGroup">
                <path d="M32.468,10.814 C29.905,11.597 27.876,13.377 26.373,15.184 C26.195,15.597 26.014,16.01 25.839,16.416 C25.555,17.072 25.305,17.728 25.048,18.356 C24.707,19.223 24.403,20.048 24.137,20.811 C26.189,21.956 31.381,24.404 36.169,22.943 C42.299,21.072 45.418,13.492 45.418,13.492 C45.418,13.492 38.598,8.944 32.468,10.814" id="Fill-2"/>
                <path d="M30.516,24.249 L24.424,20.006 C24.19,20.648 23.978,21.258 23.795,21.814 C23.622,22.32 23.501,22.787 23.374,23.197 C23.343,23.294 23.322,23.378 23.296,23.468 L28.523,27.11 C28.725,27.25 28.841,27.49 28.827,27.713 L27.445,46.253 C27.422,46.626 27.111,46.919 26.738,46.919 L5.343,46.919 C4.966,46.919 4.655,46.623 4.635,46.228 L3.486,27.736 C3.473,27.491 3.586,27.26 3.788,27.12 L15.758,18.781 C15.908,18.676 16.061,18.654 16.163,18.654 C16.264,18.654 16.417,18.676 16.568,18.781 L20.454,21.489 C20.588,21.205 20.728,20.911 20.89,20.603 C21.238,19.922 21.653,19.164 22.092,18.381 L18.56,15.921 C17.146,14.936 15.18,14.936 13.765,15.921 L1.796,24.26 C0.599,25.093 -0.07,26.46 0.006,27.934 L1.155,46.425 C1.269,48.656 3.109,50.404 5.343,50.404 L26.738,50.404 C28.949,50.404 30.788,48.676 30.923,46.49 L32.305,27.949 C32.394,26.498 31.709,25.081 30.516,24.249" id="Fill-4"/>
            </g>
            <path d="M54.098,30.057 L48.801,48.661 L44.11,48.661 L38.629,30.057 L42.292,30.057 L46.455,44.734 L50.487,30.057 L54.098,30.057" id="Fill-6" fill="#1A1918" sketch:type="MSShapeGroup"/>
            <path d="M61.86,30.057 L64.837,30.057 L64.837,33.193 L61.86,33.193 L61.86,30.057 Z M63.177,42.1 C62.545,42.416 61.833,42.653 60.41,42.89 C59.277,43.048 57.776,43.311 57.776,44.708 C57.776,45.736 58.645,46.263 59.909,46.263 C61.517,46.263 62.65,45.525 62.993,44.734 C63.177,44.34 63.177,43.944 63.177,43.549 L63.177,42.1 L63.177,42.1 Z M56.563,30.057 L59.542,30.057 L59.542,33.193 L56.563,33.193 L56.563,30.057 Z M55.034,39.359 C55.087,38.7 55.14,38.146 55.562,37.383 C56.826,35.09 59.962,35.09 60.806,35.09 C62.07,35.09 63.599,35.248 64.758,35.934 C66.314,36.882 66.34,38.12 66.34,39.543 L66.34,46.526 C66.34,47.528 66.34,47.87 66.919,48.661 L63.177,48.661 C63.151,48.345 63.098,47.818 63.098,47.634 C62.413,48.213 61.017,48.977 59.198,48.977 C56.221,48.977 54.429,47.133 54.429,44.866 C54.429,44.208 54.586,43.602 54.85,43.074 C55.799,41.177 57.828,40.756 59.093,40.519 C61.807,39.965 62.018,39.912 63.177,39.543 C63.177,38.885 63.124,37.541 60.938,37.541 C59.62,37.541 58.908,37.962 58.592,38.384 C58.249,38.806 58.276,39.175 58.276,39.543 L55.034,39.359 L55.034,39.359 Z" id="Fill-7" fill="#1A1918" sketch:type="MSShapeGroup"/>
            <path d="M80.649,35.485 L76.67,41.599 L81.176,48.661 L77.539,48.661 L74.799,44.497 L72.164,48.661 L68.396,48.661 L72.928,41.599 L68.923,35.485 L72.638,35.485 L74.799,38.806 L76.907,35.485 L80.649,35.485" id="Fill-8" fill="#1A1918" sketch:type="MSShapeGroup"/>
            <path d="M82.936,30.215 L86.045,30.215 L86.045,33.403 L82.936,33.403 L82.936,30.215 Z M86.071,35.459 L86.071,48.767 C86.071,50.031 86.019,50.69 85.913,50.98 C85.412,52.509 83.595,52.93 81.908,52.93 C81.671,52.93 81.592,52.93 81.196,52.903 L81.196,50.005 C81.486,50.005 82.303,49.926 82.646,49.504 C82.936,49.162 82.936,49.057 82.936,47.502 L82.936,35.459 L86.071,35.459 L86.071,35.459 Z" id="Fill-9" fill="#1A1918" sketch:type="MSShapeGroup"/>
            <path d="M96.468,30.057 L99.445,30.057 L99.445,33.193 L96.468,33.193 L96.468,30.057 Z M95.202,37.935 C93.227,37.935 91.803,39.517 91.803,41.941 C91.803,44.655 93.464,46.157 95.36,46.157 C97.653,46.157 98.813,44.155 98.733,41.968 C98.681,39.78 97.416,37.935 95.202,37.935 L95.202,37.935 Z M91.171,30.057 L94.149,30.057 L94.149,33.193 L91.171,33.193 L91.171,30.057 Z M95.36,49.057 C91.25,49.057 88.509,46.053 88.509,42.02 C88.509,37.988 91.303,35.09 95.229,35.09 C98.892,35.09 102.027,37.646 102.054,42.02 C102.054,46.131 99.34,49.057 95.36,49.057 L95.36,49.057 Z" id="Fill-10" fill="#1A1918" sketch:type="MSShapeGroup"/>
            <path d="M110.696,37.962 C109.274,37.962 107.587,39.043 107.587,41.862 C107.587,42.68 107.692,43.232 107.798,43.549 C108.431,46.053 110.565,46.053 110.828,46.053 C113.148,46.053 113.911,43.707 113.963,41.968 C114.043,39.359 112.409,37.962 110.696,37.962 L110.696,37.962 Z M107.64,30.057 L107.64,36.592 C108.694,35.617 110.012,35.09 111.461,35.09 C114.438,35.09 117.231,37.83 117.231,42.02 C117.231,46.315 114.385,49.057 111.25,49.057 C109.511,49.057 108.325,48.081 107.64,47.291 L107.64,48.661 L104.504,48.661 L104.504,30.057 L107.64,30.057 L107.64,30.057 Z" id="Fill-11" fill="#1A1918" sketch:type="MSShapeGroup"/>
            <path d="M125.72,37.935 C123.745,37.935 122.322,39.517 122.322,41.941 C122.322,44.655 123.982,46.157 125.879,46.157 C128.171,46.157 129.331,44.155 129.252,41.968 C129.199,39.78 127.934,37.935 125.72,37.935 L125.72,37.935 Z M125.879,49.057 C121.768,49.057 119.027,46.053 119.027,42.02 C119.027,37.988 121.821,35.09 125.747,35.09 C129.41,35.09 132.545,37.646 132.572,42.02 C132.572,46.131 129.858,49.057 125.879,49.057 L125.879,49.057 Z" id="Fill-12" fill="#1A1918" sketch:type="MSShapeGroup"/>
            <path d="M136.113,44.761 C136.904,45.736 138.089,46.447 139.908,46.447 C141.726,46.447 142.516,45.552 142.516,44.893 C142.516,44.05 141.568,43.839 141.146,43.76 C140.699,43.654 138.538,43.259 138.063,43.127 C134.927,42.39 134.347,40.571 134.347,39.385 C134.347,37.145 136.377,35.09 139.987,35.09 C141.99,35.09 143.439,35.723 144.335,36.354 C144.994,36.776 145.416,37.225 145.679,37.541 L143.439,39.622 C143.07,38.911 142.174,37.62 139.855,37.62 C138.353,37.62 137.668,38.278 137.668,38.964 C137.668,39.912 138.643,40.176 140.33,40.466 C143.07,40.967 143.835,41.098 144.677,41.757 C145.495,42.39 146.021,43.443 146.021,44.55 C146.021,46.605 144.176,49.057 140.092,49.057 C137.747,49.057 135.428,48.318 133.768,46.711 L136.113,44.761" id="Fill-13" fill="#1A1918" sketch:type="MSShapeGroup"/>
            <path d="M152.243,37.751 L152.243,43.707 C152.243,45.341 152.243,46.053 153.745,46.053 C154.219,46.053 154.615,46.026 155.062,45.894 L155.062,48.556 C154.114,48.714 153.481,48.767 152.77,48.767 C152.111,48.767 149.897,48.767 149.292,47.159 C149.081,46.632 149.081,45.789 149.081,44.471 L149.081,37.751 L147.157,37.751 L147.157,35.485 L149.081,35.485 L149.081,30.821 L152.243,30.821 L152.243,35.485 L155.062,35.485 L155.062,37.751 L152.243,37.751" id="Fill-14" fill="#1A1918" sketch:type="MSShapeGroup"/>
            <path d="M163.725,30.057 L166.703,30.057 L166.703,33.193 L163.725,33.193 L163.725,30.057 Z M165.043,42.1 C164.411,42.416 163.699,42.653 162.276,42.89 C161.143,43.048 159.641,43.311 159.641,44.708 C159.641,45.736 160.51,46.263 161.775,46.263 C163.382,46.263 164.516,45.525 164.859,44.734 C165.043,44.34 165.043,43.944 165.043,43.549 L165.043,42.1 L165.043,42.1 Z M158.428,30.057 L161.407,30.057 L161.407,33.193 L158.428,33.193 L158.428,30.057 Z M156.9,39.359 C156.953,38.7 157.005,38.146 157.427,37.383 C158.692,35.09 161.828,35.09 162.671,35.09 C163.936,35.09 165.464,35.248 166.624,35.934 C168.179,36.882 168.206,38.12 168.206,39.543 L168.206,46.526 C168.206,47.528 168.206,47.87 168.785,48.661 L165.043,48.661 C165.016,48.345 164.963,47.818 164.963,47.634 C164.279,48.213 162.882,48.977 161.064,48.977 C158.087,48.977 156.295,47.133 156.295,44.866 C156.295,44.208 156.453,43.602 156.715,43.074 C157.665,41.177 159.694,40.756 160.959,40.519 C163.672,39.965 163.883,39.912 165.043,39.543 C165.043,38.885 164.99,37.541 162.803,37.541 C161.486,37.541 160.774,37.962 160.458,38.384 C160.115,38.806 160.141,39.175 160.141,39.543 L156.9,39.359 L156.9,39.359 Z" id="Fill-15" fill="#1A1918" sketch:type="MSShapeGroup"/>
            <path d="M179.384,39.227 C178.911,38.516 178.12,38.015 177.066,38.015 C174.931,38.015 173.903,39.938 173.903,42.02 C173.903,42.258 173.929,46.21 177.013,46.21 C178.647,46.21 180.123,44.998 180.096,42.152 C180.07,41.309 179.964,40.097 179.384,39.227 L179.384,39.227 Z M183.258,30.057 L183.258,48.661 L180.123,48.661 L180.123,47.396 C179.147,48.582 177.83,49.057 176.46,49.057 C173.324,49.057 170.609,46.711 170.609,42.363 C170.609,38.436 172.823,35.09 176.591,35.09 C177.882,35.09 179.121,35.459 180.123,36.565 L180.123,30.057 L183.258,30.057 L183.258,30.057 Z" id="Fill-16" fill="#1A1918" sketch:type="MSShapeGroup"/>
            <path d="M195.409,40.387 C195.119,38.331 193.854,37.62 192.458,37.62 C190.771,37.62 189.611,38.595 189.242,40.387 L195.409,40.387 L195.409,40.387 Z M198.993,45.71 C197.359,47.896 195.251,49.057 192.562,49.057 C189.111,49.057 185.79,46.869 185.79,42.02 C185.79,37.594 188.636,35.09 192.352,35.09 C195.831,35.09 197.28,37.172 197.543,37.567 C198.624,39.096 198.861,41.388 198.887,42.706 L189.136,42.706 C189.505,44.787 190.796,45.974 192.878,45.974 C195.04,45.974 195.909,44.708 196.304,44.155 L198.993,45.71 L198.993,45.71 Z" id="Fill-17" fill="#1A1918" sketch:type="MSShapeGroup"/>
            <path d="M204.364,35.485 L204.364,37.356 C204.759,36.671 205.628,35.116 208.581,35.195 L208.581,38.436 C207.895,38.463 206.71,38.489 205.734,39.227 C204.39,40.255 204.364,41.599 204.364,43.786 L204.364,48.661 L201.307,48.661 L201.307,35.485 L204.364,35.485" id="Fill-18" fill="#1A1918" sketch:type="MSShapeGroup"/>
            <g id="Group-23">
                <mask id="mask-2" sketch:name="Clip 20" fill="white">
                    <use xlink:href="#path-1"/>
                </mask>
                <g id="Clip-20"/>
                <path d="M60.02,64.856 L59.501,64.856 L59.541,60.067 L57.694,64.856 L57.326,64.856 L55.447,60.067 L55.51,64.856 L54.991,64.856 L54.991,59.212 L55.623,59.212 L57.534,64.001 L59.357,59.212 L60.02,59.212 L60.02,64.856" id="Fill-19" fill="#1A1918" sketch:type="MSShapeGroup" mask="url(#mask-2)"/>
                <path d="M65.872,57.812 L66.408,57.812 L66.408,58.58 L65.872,58.58 L65.872,57.812 Z M64.121,57.812 L64.656,57.812 L64.656,58.58 L64.121,58.58 L64.121,57.812 Z M65.264,59.531 C63.825,59.531 63.385,60.955 63.385,62.034 C63.385,63.081 63.8,64.52 65.24,64.52 C66.983,64.52 67.103,62.458 67.103,62.002 C67.111,60.978 66.695,59.531 65.264,59.531 L65.264,59.531 Z M66.959,64.265 C66.408,64.912 65.728,65 65.264,65 C64.568,65 63.993,64.784 63.529,64.232 C63.13,63.769 62.817,63.025 62.817,62.026 C62.817,60.467 63.585,59.067 65.264,59.067 C67.135,59.067 67.687,60.715 67.678,61.994 C67.671,62.857 67.415,63.729 66.959,64.265 L66.959,64.265 Z" id="Fill-21" fill="#1A1918" sketch:type="MSShapeGroup" mask="url(#mask-2)"/>
                <path d="M73.231,59.212 L73.231,62.521 C73.231,62.922 73.231,63.689 73.142,64.017 C72.871,64.984 71.935,64.984 71.672,64.984 C71.408,64.984 70.816,64.969 70.408,64.553 C70.033,64.185 70.008,63.737 69.984,63.306 L70.552,63.178 C70.545,63.266 70.536,63.346 70.536,63.425 C70.536,64.064 70.824,64.513 71.704,64.513 C72.679,64.513 72.687,63.737 72.695,63.161 C72.703,62.882 72.703,62.706 72.703,62.25 L72.703,59.212 L73.231,59.212" id="Fill-22" fill="#1A1918" sketch:type="MSShapeGroup" mask="url(#mask-2)"/>
            </g>
            <path d="M79.922,64.856 L76.26,64.856 L76.26,59.203 L76.804,59.203 L76.804,64.36 L79.922,64.36 L79.922,64.856" id="Fill-24" fill="#1A1918" sketch:type="MSShapeGroup"/>
            <g id="Group-28">
                <mask id="mask-4" sketch:name="Clip 26" fill="white">
                    <use xlink:href="#path-3"/>
                </mask>
                <g id="Clip-26"/>
                <path d="M82.48,59.212 L83.016,59.212 L83.016,64.856 L82.48,64.856 L82.48,59.212 Z" id="Fill-25" fill="#1A1918" sketch:type="MSShapeGroup" mask="url(#mask-4)"/>
                <path d="M90.376,64.856 L89.912,64.856 L89.912,63.913 C89.847,64.081 89.672,64.52 89.144,64.793 C88.881,64.929 88.552,65 88.201,65 C86.641,65 85.801,63.721 85.801,62.082 C85.801,60.339 86.697,59.067 88.329,59.067 C89.776,59.067 90.223,60.035 90.416,60.499 L89.912,60.77 C89.855,60.531 89.576,59.523 88.369,59.523 C87.209,59.523 86.37,60.459 86.37,62.05 C86.37,63.489 87.009,64.528 88.232,64.528 C89.584,64.528 89.935,63.281 89.912,62.394 L87.833,62.394 L87.833,61.906 L90.376,61.906 L90.376,64.856" id="Fill-27" fill="#1A1918" sketch:type="MSShapeGroup" mask="url(#mask-4)"/>
            </g>
            <path d="M97.937,64.856 L97.401,64.856 L97.401,62.21 L93.931,62.21 L93.931,64.856 L93.403,64.856 L93.403,59.212 L93.931,59.212 L93.931,61.738 L97.401,61.738 L97.401,59.212 L97.937,59.212 L97.937,64.856" id="Fill-29" fill="#1A1918" sketch:type="MSShapeGroup"/>
            <path d="M104.865,64.856 L100.979,64.856 L100.979,59.212 L104.666,59.212 L104.666,59.707 L101.515,59.707 L101.515,61.714 L104.37,61.714 L104.37,62.21 L101.515,62.21 L101.515,64.36 L104.865,64.36 L104.865,64.856" id="Fill-30" fill="#1A1918" sketch:type="MSShapeGroup"/>
            <path d="M109.42,64.856 L108.883,64.856 L108.883,59.684 L107.109,59.684 L107.109,59.212 L111.203,59.212 L111.203,59.684 L109.42,59.684 L109.42,64.856" id="Fill-31" fill="#1A1918" sketch:type="MSShapeGroup"/>
            <path d="M117.611,64.856 L113.725,64.856 L113.725,59.212 L117.412,59.212 L117.412,59.707 L114.261,59.707 L114.261,61.714 L117.116,61.714 L117.116,62.21 L114.261,62.21 L114.261,64.36 L117.611,64.36 L117.611,64.856" id="Fill-32" fill="#1A1918" sketch:type="MSShapeGroup"/>
            <path d="M120.769,61.89 L122.096,61.89 C122.464,61.89 122.808,61.882 123.047,61.834 C123.647,61.714 123.863,61.259 123.863,60.803 C123.863,60.251 123.591,59.835 123.04,59.724 C122.879,59.691 122.808,59.691 122.096,59.684 L120.769,59.684 L120.769,61.89 L120.769,61.89 Z M124.55,64.856 L123.879,64.856 L122.096,62.353 L120.769,62.353 L120.769,64.856 L120.233,64.856 L120.233,59.203 L121.816,59.203 C122.799,59.212 123.047,59.212 123.399,59.331 C124.327,59.659 124.391,60.547 124.391,60.826 C124.391,61.418 124.135,61.746 123.967,61.914 C123.559,62.298 123.024,62.33 122.72,62.353 L124.55,64.856 L124.55,64.856 Z" id="Fill-33" fill="#1A1918" sketch:type="MSShapeGroup"/>
            <path d="M131.487,64.856 L130.959,64.856 L127.64,59.979 L127.64,64.856 L127.121,64.856 L127.121,59.212 L127.64,59.212 L131.006,64.041 L130.959,59.212 L131.487,59.212 L131.487,64.856" id="Fill-34" fill="#1A1918" sketch:type="MSShapeGroup"/>
            <g id="Group-40">
                <mask id="mask-6" sketch:name="Clip 36" fill="white">
                    <use xlink:href="#path-5"/>
                </mask>
                <g id="Clip-36"/>
                <path d="M137.599,62.722 L136.512,59.843 L135.409,62.722 L137.599,62.722 L137.599,62.722 Z M138.991,64.856 L138.407,64.856 L137.759,63.153 L135.233,63.153 L134.593,64.856 L133.994,64.856 L136.296,59.212 L136.744,59.212 L138.991,64.856 L138.991,64.856 Z" id="Fill-35" fill="#1A1918" sketch:type="MSShapeGroup" mask="url(#mask-6)"/>
                <path d="M144.75,60.579 C144.701,60.435 144.637,60.243 144.509,60.075 C144.229,59.684 143.774,59.508 143.286,59.508 C142.678,59.508 141.959,59.764 141.959,60.515 C141.959,61.202 142.59,61.402 142.91,61.498 C143.07,61.546 143.878,61.754 144.053,61.818 C144.357,61.914 145.357,62.242 145.357,63.313 C145.357,64.104 144.693,65 143.246,65 C142.646,65 142.214,64.849 141.919,64.656 C141.487,64.369 141.247,63.953 141.151,63.434 L141.687,63.153 C141.695,63.377 141.718,63.609 141.823,63.809 C142.079,64.337 142.663,64.537 143.246,64.537 C144.334,64.537 144.813,63.937 144.813,63.337 C144.813,62.93 144.622,62.697 144.469,62.578 C144.213,62.361 143.885,62.282 143.142,62.09 C142.342,61.882 141.439,61.586 141.439,60.539 C141.439,59.428 142.422,59.067 143.302,59.067 C144.75,59.067 145.117,59.995 145.245,60.307 L144.75,60.579" id="Fill-37" fill="#1A1918" sketch:type="MSShapeGroup" mask="url(#mask-6)"/>
                <path d="M152.143,64.369 L153.574,64.369 C153.95,64.369 154.126,64.369 154.261,64.36 C154.981,64.329 155.429,63.969 155.429,63.281 C155.429,62.394 154.654,62.17 154.542,62.145 C154.294,62.074 154.014,62.074 153.702,62.066 L152.143,62.066 L152.143,64.369 L152.143,64.369 Z M152.143,61.602 L153.726,61.602 C154.158,61.602 154.597,61.602 154.901,61.347 C155.086,61.194 155.221,60.938 155.221,60.61 C155.221,60.291 155.086,60.051 154.893,59.907 C154.614,59.691 154.222,59.691 153.822,59.691 L152.143,59.691 L152.143,61.602 L152.143,61.602 Z M153.942,59.212 C154.374,59.212 154.918,59.22 155.334,59.587 C155.605,59.827 155.773,60.195 155.773,60.619 C155.773,61.442 155.173,61.746 154.813,61.81 C154.797,61.818 154.782,61.818 154.765,61.818 C154.782,61.826 154.805,61.834 154.83,61.834 C155.533,61.994 155.964,62.49 155.964,63.258 C155.964,63.865 155.685,64.648 154.645,64.816 C154.381,64.856 154.173,64.856 153.278,64.856 L151.607,64.856 L151.607,59.212 L153.942,59.212 L153.942,59.212 Z" id="Fill-38" fill="#1A1918" sketch:type="MSShapeGroup" mask="url(#mask-6)"/>
                <path d="M160.878,59.531 C159.439,59.531 159,60.955 159,62.034 C159,63.081 159.415,64.52 160.854,64.52 C162.597,64.52 162.717,62.458 162.717,62.002 C162.725,60.978 162.309,59.531 160.878,59.531 L160.878,59.531 Z M162.574,64.265 C162.022,64.912 161.342,65 160.878,65 C160.182,65 159.607,64.784 159.143,64.232 C158.744,63.769 158.431,63.025 158.431,62.026 C158.431,60.467 159.199,59.067 160.878,59.067 C162.75,59.067 163.301,60.715 163.293,61.994 C163.285,62.857 163.029,63.729 162.574,64.265 L162.574,64.265 Z" id="Fill-39" fill="#1A1918" sketch:type="MSShapeGroup" mask="url(#mask-6)"/>
            </g>
            <path d="M169.972,64.856 L166.087,64.856 L166.087,59.212 L169.773,59.212 L169.773,59.707 L166.623,59.707 L166.623,61.714 L169.477,61.714 L169.477,62.21 L166.623,62.21 L166.623,64.36 L169.972,64.36 L169.972,64.856" id="Fill-41" fill="#1A1918" sketch:type="MSShapeGroup"/>
            <path d="M176.96,64.856 L176.431,64.856 L173.113,59.979 L173.113,64.856 L172.593,64.856 L172.593,59.212 L173.113,59.212 L176.479,64.041 L176.431,59.212 L176.96,59.212 L176.96,64.856" id="Fill-42" fill="#1A1918" sketch:type="MSShapeGroup"/>
            <path d="M180.545,64.377 L181.393,64.377 C181.857,64.377 182.504,64.385 182.88,64.209 C183.423,63.961 183.912,63.169 183.912,62.042 C183.912,61.074 183.528,60.147 182.84,59.843 C182.528,59.707 182.224,59.707 181.529,59.707 L180.545,59.707 L180.545,64.377 L180.545,64.377 Z M180.002,64.856 L180.002,59.212 L181.504,59.212 C182.105,59.22 182.625,59.22 183.032,59.38 C183.839,59.699 184.447,60.699 184.447,62.018 C184.447,63.073 184.063,63.961 183.44,64.448 C182.928,64.849 182.417,64.856 181.464,64.856 L180.002,64.856 L180.002,64.856 Z" id="Fill-43" fill="#1A1918" sketch:type="MSShapeGroup"/>
            <path d="M191.126,64.856 L187.24,64.856 L187.24,59.212 L190.926,59.212 L190.926,59.707 L187.776,59.707 L187.776,61.714 L190.63,61.714 L190.63,62.21 L187.776,62.21 L187.776,64.36 L191.126,64.36 L191.126,64.856" id="Fill-44" fill="#1A1918" sketch:type="MSShapeGroup"/>
        </g>
    </g>
</svg>